<?xml version="1.0" standalone="no"?>
<!DOCTYPE svg PUBLIC "-//W3C//DTD SVG 20010904//EN"
 "http://www.w3.org/TR/2001/REC-SVG-20010904/DTD/svg10.dtd">
<svg version="1.0" xmlns="http://www.w3.org/2000/svg"
 width="960.000000pt" height="1280.000000pt" viewBox="0 0 960.000000 1280.000000"
 preserveAspectRatio="xMidYMid meet">

<g transform="translate(0.000000,1280.000000) scale(0.100000,-0.100000)"
fill="#000000" stroke="none">
<path d="M330 12790 c8 -5 45 -10 82 -10 37 0 142 -9 235 -19 92 -11 213 -22
268 -26 55 -4 219 -19 365 -35 415 -45 404 -44 423 -25 31 31 143 76 171 69
14 -3 26 -9 26 -13 0 -11 235 -12 285 -1 35 8 51 8 53 1 2 -6 7 -11 12 -11 11
0 70 59 70 71 0 5 -396 9 -1002 9 -651 0 -998 -4 -988 -10z"/>
<path d="M6110 12781 c0 -11 11 -40 24 -65 l23 -44 -27 -54 -28 -54 18 -39
c10 -22 16 -43 14 -47 -3 -5 4 -8 15 -8 11 0 28 -11 39 -25 21 -26 42 -33 42
-13 0 6 -3 9 -6 5 -4 -3 -15 10 -25 31 -20 38 -18 89 7 285 l7 47 -52 0 c-44
0 -51 -3 -51 -19z"/>
<path d="M7710 12721 c0 -61 -3 -80 -15 -85 -10 -3 -15 -18 -14 -43 l2 -38 7
40 c5 28 8 4 9 -77 0 -73 -3 -118 -9 -118 -5 0 -10 -5 -10 -11 0 -5 4 -8 9 -5
14 9 20 -17 33 -125 8 -72 8 -117 -1 -174 -6 -42 -11 -117 -11 -168 0 -129
-17 -312 -30 -337 -7 -12 -28 -40 -47 -61 -40 -44 -40 -36 12 -129 14 -25 25
-54 25 -66 0 -11 -18 -45 -40 -74 -45 -61 -46 -66 -23 -118 16 -37 20 -175 8
-268 -25 -192 -34 -287 -39 -439 -2 -60 -15 -168 -29 -240 -14 -71 -33 -177
-42 -235 -9 -58 -21 -124 -27 -147 l-10 -42 -57 -3 c-31 -2 -141 2 -246 9
-220 14 -445 7 -445 -13 0 -7 10 -24 23 -38 22 -23 25 -24 51 -11 39 21 48 19
79 -13 27 -28 27 -29 10 -63 -9 -19 -23 -40 -30 -47 -7 -7 -13 -18 -13 -23 0
-22 -39 -6 -78 31 -22 22 -50 40 -61 40 -31 0 -73 -19 -66 -30 12 -20 -35
-100 -62 -107 -39 -9 -89 23 -113 72 -25 52 -25 72 0 110 11 17 20 42 20 57 0
15 4 29 9 33 8 4 9 53 2 204 -1 29 -3 32 -16 21 -8 -7 -15 -23 -15 -36 0 -12
-5 -26 -10 -29 -6 -3 -15 -26 -21 -50 -12 -48 -21 -59 -57 -70 -18 -5 -31 2
-64 35 l-40 43 6 71 c3 39 9 86 12 104 6 30 4 33 -12 30 -11 -2 -20 -13 -22
-26 -2 -12 -7 -22 -12 -22 -14 0 -19 -62 -11 -128 7 -58 6 -65 -16 -88 -21
-23 -28 -24 -71 -18 -69 10 -91 21 -102 49 -16 41 -8 95 13 95 12 0 17 8 17
28 l-1 27 -13 -24 c-12 -21 -14 -22 -23 -7 -8 15 -10 14 -21 -6 -6 -13 -23
-81 -38 -153 -14 -71 -27 -137 -29 -145 -2 -8 -4 -25 -4 -37 -1 -14 -7 -23
-17 -23 -8 0 -13 -4 -9 -9 3 -5 1 -12 -4 -15 -6 -4 -8 11 -5 36 2 23 0 57 -5
76 -8 26 -7 34 5 39 9 3 11 9 5 17 -5 6 -12 37 -16 69 -4 31 -11 57 -15 57 -5
0 -6 10 -3 23 4 17 3 19 -6 7 -9 -13 -12 -13 -28 3 -11 10 -13 17 -5 17 19 0
14 30 -5 31 -11 0 -13 3 -5 6 17 7 5 23 -18 23 -11 0 -20 10 -24 25 -4 14 -13
25 -21 25 -9 0 -21 11 -27 25 -6 14 -18 25 -26 25 -9 0 -6 7 9 21 l24 20 -25
-7 c-13 -4 -37 -19 -52 -35 -16 -15 -42 -34 -59 -43 -41 -20 -56 -14 -138 55
-10 9 -15 9 -22 -2 -7 -12 -9 -11 -9 1 0 22 -81 49 -111 38 -13 -5 -34 -6 -46
-3 -35 8 -27 -4 15 -23 26 -12 37 -24 38 -40 0 -16 -3 -19 -10 -12 -16 16 -30
12 -16 -5 14 -17 0 -21 -17 -4 -7 7 -15 0 -26 -23 -16 -32 -17 -32 -18 -8 -1
18 -3 20 -6 7 -4 -15 -7 -16 -21 -5 -13 11 -15 10 -10 -9 4 -15 0 -23 -14 -26
-11 -3 -26 -23 -35 -47 -13 -32 -18 -38 -25 -26 -5 9 -5 24 1 35 13 23 -9 37
-28 18 -9 -9 -14 -8 -21 3 -7 10 -10 11 -10 3 0 -7 -5 -13 -11 -13 -5 0 -8 4
-5 9 9 14 -20 21 -33 8 -6 -6 -11 -18 -12 -26 -1 -9 -4 -5 -9 9 -8 26 -9 24
-25 -25 -4 -13 -36 -19 -71 -14 -4 0 -11 -5 -15 -13 -6 -9 -9 -6 -9 12 0 25 0
25 -19 -6 -16 -26 -22 -81 -11 -104 1 -3 1 -9 0 -15 -10 -44 -11 -115 -2 -115
6 0 14 -16 18 -35 5 -29 2 -38 -17 -54 -13 -10 -31 -18 -40 -16 -13 3 -15 -3
-13 -26 2 -16 -1 -29 -6 -29 -13 0 -30 43 -30 76 0 13 -5 24 -11 24 -6 0 -9
-7 -5 -15 3 -9 -3 -23 -14 -32 -11 -10 -20 -23 -20 -31 0 -22 -20 -2 -21 21
-1 19 -2 18 -9 -5 -4 -15 -5 -43 0 -62 4 -19 4 -40 -1 -47 -6 -9 -9 1 -9 29 0
30 -4 41 -12 36 -7 -5 -8 -3 -3 5 7 13 -12 99 -25 114 -4 5 -11 -11 -15 -35
-4 -24 -9 -38 -12 -31 -4 12 -9 11 -52 -14 -2 -2 2 -10 9 -18 11 -13 11 -21
-1 -43 -8 -15 -18 -30 -23 -34 -6 -4 -9 -24 -8 -45 1 -21 -3 -45 -9 -53 -9
-13 -10 -13 -6 2 3 9 1 19 -6 21 -9 3 -8 9 3 22 9 11 10 16 3 11 -18 -10 -16
24 2 48 8 11 15 16 15 10 1 -10 29 37 30 49 0 17 -18 5 -24 -15 -3 -15 -9 -19
-15 -13 -7 7 -7 22 0 46 9 30 15 35 34 31 19 -3 23 1 27 27 2 17 -1 44 -8 61
-7 17 -13 33 -13 35 1 16 -14 65 -20 65 -4 0 -7 9 -8 21 -2 22 -23 53 -31 44
-3 -2 1 -11 8 -20 7 -9 10 -27 6 -45 -4 -22 -2 -30 9 -30 16 0 20 -21 8 -34
-8 -8 -9 -10 -12 -43 -2 -11 -8 -2 -16 20 -8 21 -11 45 -8 54 5 11 3 14 -6 8
-10 -6 -11 -2 -6 16 5 19 4 21 -4 9 -9 -13 -11 -12 -11 4 0 15 -3 16 -15 6
-12 -10 -16 -9 -21 4 -3 9 -10 16 -15 16 -5 0 -4 -9 3 -20 7 -11 18 -18 25
-16 13 5 26 -21 17 -36 -3 -5 2 -16 12 -24 11 -9 14 -13 8 -10 -14 7 -27 -7
-59 -68 -13 -25 -22 -53 -19 -61 4 -8 1 -21 -5 -28 -7 -9 -8 -24 -1 -48 12
-43 12 -49 0 -49 -5 0 -10 8 -10 18 0 11 -3 13 -8 5 -4 -7 -13 -9 -20 -4 -10
6 -8 18 8 55 24 58 25 70 4 62 -13 -5 -15 -1 -12 19 8 37 -13 26 -28 -16 -10
-28 -13 -31 -19 -16 -4 10 -3 23 4 30 15 15 14 70 -1 85 -9 9 -9 12 0 12 7 0
12 9 12 20 0 11 4 20 9 20 5 0 8 11 7 25 -1 31 -14 32 -26 3 -5 -13 -9 -19 -9
-14 -1 5 -8 3 -16 -4 -12 -10 -15 -10 -15 1 0 11 -2 11 -10 -1 -13 -21 8 -44
26 -29 12 9 13 6 8 -22 -10 -50 -23 -71 -24 -36 0 16 -4 26 -10 22 -6 -3 -10
4 -10 17 0 33 -21 60 -38 49 -12 -7 -11 -14 2 -39 9 -17 16 -50 16 -74 -1 -40
-2 -42 -15 -24 -17 22 -20 50 -5 41 16 -10 12 11 -5 25 -8 7 -13 16 -10 20 3
4 -2 21 -10 36 -19 37 -19 46 1 70 14 17 15 17 10 1 -4 -12 -2 -17 6 -14 7 2
11 11 9 18 -2 8 -7 46 -11 84 -5 54 -4 72 7 78 18 11 17 28 -2 21 -8 -4 -15
-2 -15 4 0 6 5 12 12 14 8 3 8 9 0 24 -11 19 -11 18 -12 -2 0 -11 -3 -24 -7
-28 -5 -4 -8 -20 -8 -34 0 -17 -6 -28 -17 -30 -15 -3 -17 4 -16 42 1 25 5 46
8 46 11 0 4 78 -8 93 -8 9 -11 21 -7 27 4 6 -3 9 -16 7 -13 -1 -26 6 -33 18
-6 11 -14 22 -18 25 -4 3 -5 18 -4 33 2 15 -1 30 -5 33 -5 3 -9 -3 -9 -12 0
-14 -2 -16 -12 -5 -7 6 -13 33 -13 59 0 32 -4 46 -12 45 -7 -2 -13 6 -13 18 0
15 5 19 15 15 19 -7 19 -4 1 39 -9 21 -22 35 -32 35 -14 0 -15 3 -6 12 17 17
15 33 -3 18 -8 -7 -16 -10 -16 -6 -4 20 -18 56 -29 78 -6 10 -5 18 1 22 5 2 4
3 -3 2 -9 -2 -12 -18 -11 -47 l3 -44 -14 30 c-12 26 -12 34 1 58 18 35 14 59
-11 63 -15 2 -17 -3 -14 -32 2 -19 0 -34 -4 -34 -4 0 -8 16 -8 36 0 24 -4 33
-11 28 -8 -5 -10 1 -7 19 3 15 2 24 -2 22 -11 -7 -21 22 -14 40 4 8 2 15 -4
15 -5 0 -13 -26 -17 -57 -6 -53 -5 -59 18 -79 23 -19 25 -28 22 -73 -3 -41 -1
-51 11 -51 11 0 15 -9 13 -27 -1 -16 3 -46 9 -68 18 -67 35 -197 35 -265 0
-36 2 -59 4 -53 4 10 8 9 19 -1 16 -17 19 -46 3 -46 -6 0 -8 -9 -4 -21 4 -12
7 -60 6 -108 0 -47 4 -108 10 -136 5 -27 11 -102 12 -165 2 -76 7 -123 17
-140 8 -14 15 -31 16 -38 1 -8 10 -22 20 -33 11 -12 19 -41 21 -77 5 -63 20
-112 35 -112 6 0 8 -7 4 -15 -9 -25 15 -65 51 -82 21 -10 32 -21 29 -29 -3 -9
2 -14 14 -14 10 0 22 -5 25 -10 4 -6 11 -8 16 -4 5 3 6 10 3 16 -4 7 -2 8 4 4
7 -4 12 -11 12 -17 0 -11 37 -49 47 -48 22 4 34 -3 31 -17 -3 -18 38 -28 48
-12 9 14 24 9 18 -7 -5 -13 2 -15 41 -11 44 3 52 -8 11 -16 -11 -1 -21 -9 -24
-16 -3 -11 0 -12 16 -3 29 16 69 14 76 -4 3 -8 14 -15 25 -15 14 0 19 -5 14
-15 -3 -9 -2 -15 3 -14 20 3 78 -3 67 -8 -22 -8 -14 -23 11 -23 14 0 28 -4 31
-10 3 -5 16 -10 28 -10 16 0 18 -3 9 -9 -10 -6 -6 -10 14 -15 22 -6 25 -9 13
-17 -8 -5 -9 -9 -2 -9 6 0 19 7 27 16 9 8 16 11 16 5 0 -6 7 -11 15 -11 8 0
15 -7 15 -16 0 -12 7 -14 29 -9 17 4 44 0 66 -9 21 -9 48 -16 62 -16 15 0 22
-4 17 -11 -4 -8 0 -7 15 1 30 16 64 4 56 -21 -6 -17 -2 -18 39 -14 48 5 60 -7
34 -33 -9 -9 -7 -12 10 -12 12 0 22 4 22 10 0 5 17 17 38 27 20 9 40 22 44 27
5 7 8 4 8 -7 0 -10 5 -15 10 -12 6 4 8 11 5 16 -4 5 -1 9 5 9 7 0 10 -7 6 -15
-3 -8 3 -19 14 -25 34 -18 43 -12 36 22 -6 29 -5 30 11 17 10 -8 32 -16 48
-17 23 -2 27 -1 15 8 -13 9 -13 11 0 20 19 13 40 13 40 0 0 -5 7 -10 15 -10
27 0 16 17 -17 28 -19 5 -25 10 -15 11 10 1 16 5 12 10 -3 6 5 8 18 5 15 -2
35 4 51 17 l27 21 -7 -28 c-8 -33 -37 -87 -65 -123 -11 -13 -19 -29 -19 -35 0
-6 -13 -27 -29 -46 -18 -22 -28 -47 -29 -69 0 -19 -6 -37 -13 -42 -7 -4 -9
-15 -5 -25 4 -10 4 -15 0 -11 -13 12 -32 -13 -26 -35 3 -12 -1 -26 -9 -32 -8
-6 -23 -29 -33 -51 -35 -80 -51 -105 -64 -105 -12 0 -12 -3 -2 -15 9 -11 8
-19 -4 -37 -9 -12 -16 -32 -16 -45 0 -12 -7 -26 -15 -30 -8 -5 -25 -30 -39
-56 l-25 -47 57 0 58 0 55 65 c119 144 113 134 110 181 -1 24 7 74 18 111 19
62 69 254 109 413 11 41 26 75 43 92 15 15 29 32 31 38 2 6 14 12 28 15 20 4
38 -8 97 -67 68 -67 74 -71 97 -60 22 10 29 8 45 -10 14 -14 27 -19 43 -15 13
4 40 4 60 1 36 -6 49 -25 52 -74 2 -26 54 -24 96 5 20 14 54 28 74 32 20 3 36
9 36 14 0 4 25 16 56 26 44 14 59 15 72 5 9 -7 25 -15 35 -18 23 -8 22 -21 -2
-29 -11 -3 -25 -22 -31 -41 -11 -32 -10 -38 9 -58 27 -28 28 -81 3 -95 -45
-24 -111 -41 -163 -41 -48 0 -57 3 -62 20 -3 13 -10 18 -21 14 -9 -3 -16 -1
-16 5 0 6 9 11 20 11 11 0 20 5 20 11 0 7 -9 9 -22 5 -66 -19 -74 -18 -106 12
-18 17 -33 25 -35 18 -3 -6 -4 3 -3 19 0 17 7 35 15 41 11 9 6 12 -26 17 -22
4 -46 14 -53 22 -16 20 -34 19 -26 -1 4 -12 1 -14 -14 -9 -18 6 -19 4 -7 -22
23 -53 91 -168 107 -181 17 -14 83 -8 88 8 6 16 44 12 57 -7 8 -11 10 -25 5
-39 -11 -28 12 -47 103 -83 40 -16 120 -55 177 -86 58 -32 123 -64 145 -72 54
-20 125 -25 141 -12 10 9 14 9 14 0 0 -6 8 -11 19 -11 24 0 73 -25 64 -33 -3
-4 2 -7 12 -7 10 0 28 -11 41 -25 20 -22 29 -25 60 -19 51 9 166 51 173 62 3
5 16 12 28 16 18 6 30 -1 58 -28 19 -19 35 -40 35 -46 0 -16 69 -42 95 -36 13
3 36 -1 51 -9 41 -21 56 -19 94 15 33 29 33 30 21 72 -8 24 -17 52 -22 63 -4
11 -18 50 -30 87 -19 59 -26 70 -61 88 -40 21 -57 18 -97 -14 -8 -6 -24 -11
-35 -12 -12 0 -47 -6 -79 -13 -53 -11 -60 -11 -78 5 -10 9 -19 21 -19 26 0 5
-9 19 -20 31 -17 18 -34 22 -98 25 -56 3 -80 8 -89 20 -15 18 -53 24 -53 8 -1
-6 -17 -24 -38 -39 -43 -33 -90 -32 -126 2 -17 16 -32 19 -84 16 l-64 -3 -14
34 c-9 21 -12 48 -8 73 5 33 12 42 43 56 21 9 50 30 65 46 l28 29 -24 9 c-12
6 -19 10 -15 10 5 1 1 11 -7 23 -11 15 -12 26 -5 40 5 10 7 24 3 30 -5 8 -2 9
10 5 11 -4 15 -3 11 4 -4 6 -17 14 -30 19 -44 17 -7 100 45 100 34 0 61 -29
54 -57 -9 -32 11 -59 61 -83 35 -17 51 -20 72 -12 17 5 27 16 27 25 -1 9 2 14
7 11 5 -3 9 4 9 15 0 11 11 29 26 40 14 11 24 23 24 28 -1 4 3 9 8 11 16 5 22
-26 6 -32 -8 -3 -14 -19 -14 -37 0 -26 2 -29 14 -20 20 17 30 -3 14 -28 -17
-28 -3 -37 35 -23 19 7 43 12 56 12 23 0 69 -26 87 -49 17 -22 72 -5 89 30 29
56 79 59 87 6 2 -11 17 -29 35 -40 27 -15 35 -16 53 -5 16 10 22 10 28 1 10
-16 72 -14 142 3 30 8 68 12 85 9 16 -3 84 -7 150 -9 79 -2 132 -8 156 -18 21
-9 42 -12 49 -8 7 5 25 4 38 -1 65 -25 191 -17 230 14 11 8 11 12 0 18 -8 5
-9 9 -2 9 6 0 26 -10 45 -23 42 -28 130 -57 173 -57 17 0 54 6 81 13 85 22
137 21 178 -3 20 -12 37 -26 37 -30 0 -9 4 -9 137 -13 85 -2 93 -4 112 -28 24
-32 73 -42 102 -21 18 12 22 12 38 -2 12 -11 36 -15 78 -15 88 1 105 -13 109
-91 3 -67 -12 -86 -45 -56 -13 12 -32 15 -77 12 -32 -2 -68 -7 -79 -11 -28 -8
-85 46 -85 80 0 27 -14 33 -27 13 -4 -7 -17 -18 -28 -24 -29 -16 -30 -40 -1
-65 14 -13 26 -29 26 -36 0 -11 11 -12 48 -7 43 5 49 3 76 -24 26 -28 51 -104
38 -117 -3 -3 -19 -5 -36 -5 -39 -1 -66 -21 -66 -50 0 -16 -4 -20 -16 -16 -9
3 -19 6 -24 6 -4 0 -10 26 -12 59 -5 67 -22 92 -55 80 -12 -4 -27 -18 -33 -30
-7 -12 -27 -37 -45 -55 -27 -27 -33 -40 -32 -73 1 -23 -2 -41 -6 -41 -5 0 -5
-5 -2 -10 4 -6 11 -8 16 -5 5 4 9 -5 9 -19 0 -32 9 -37 70 -38 45 -1 55 -7 51
-30 -2 -14 29 -9 55 8 19 13 36 15 77 10 101 -14 112 -13 136 5 16 13 40 19
77 19 47 0 54 2 54 20 0 14 -7 20 -21 20 -19 0 -21 4 -15 32 3 17 8 34 11 36
12 13 78 1 91 -15 16 -21 18 -49 4 -58 -16 -10 -11 -51 8 -68 22 -20 40 -21
109 -5 l53 13 0 822 0 822 -57 6 c-131 13 -173 45 -173 128 l0 39 -42 -7 c-24
-4 -81 -22 -128 -40 -131 -50 -198 -67 -234 -60 -37 8 -86 52 -86 77 0 10 -1
18 -2 19 -2 0 -30 3 -63 5 -65 5 -94 27 -95 72 0 17 -6 22 -26 22 -15 0 -35 9
-45 21 -16 19 -17 25 -5 53 9 22 19 30 34 29 17 -2 23 5 32 37 17 62 6 144
-15 110 -16 -25 -31 -4 -48 65 -10 41 -16 79 -12 85 4 6 8 113 11 238 2 125 8
272 13 327 6 55 17 204 26 330 8 127 20 280 25 340 5 61 10 146 10 191 0 55 5
92 16 114 9 18 19 55 21 84 5 58 5 52 -3 129 -6 57 16 178 37 201 5 6 9 23 9
38 0 15 5 28 10 28 6 0 10 8 10 18 1 9 11 37 23 62 l22 45 52 -3 c48 -3 88 9
106 33 4 7 10 7 15 0 4 -6 19 -11 33 -13 22 -3 27 2 32 25 3 15 14 74 26 131
12 56 21 134 21 172 l0 70 -455 0 -455 0 0 -80 c0 -44 -4 -80 -8 -80 -5 0 -14
-48 -20 -107 -12 -111 -5 -221 17 -247 20 -24 23 -101 11 -227 -7 -68 -14
-198 -15 -289 -2 -91 -11 -244 -19 -340 -8 -96 -18 -209 -21 -250 -10 -141
-25 -258 -35 -285 -5 -14 -10 -53 -10 -85 0 -57 -16 -197 -26 -233 -7 -23 -51
-63 -84 -77 l-27 -11 50 -49 c46 -45 51 -55 54 -102 6 -72 -22 -273 -38 -284
-5 -3 -9 -14 -9 -26 0 -21 -36 -93 -58 -116 -7 -8 -19 -28 -26 -46 -28 -67
-110 -136 -152 -128 -39 7 -60 43 -63 108 -1 32 -7 61 -13 65 -7 4 -6 8 3 11
12 4 -12 46 -49 86 -7 8 -10 17 -7 22 3 5 1 11 -5 15 -6 4 -10 -12 -11 -42 -1
-42 -2 -45 -9 -20 -5 17 -4 40 2 58 6 17 8 33 5 36 -3 3 0 12 8 20 8 8 15 25
15 39 0 13 4 24 9 24 4 0 6 12 3 26 -3 15 7 63 21 108 48 155 57 193 57 247 0
30 7 128 15 219 8 91 12 186 9 211 -4 29 0 66 9 100 9 30 18 90 22 134 4 44
16 119 27 167 20 84 20 88 3 161 -18 75 -16 154 9 407 3 30 8 84 10 120 7 104
24 204 41 236 8 16 15 39 15 51 0 12 5 25 10 28 6 4 9 39 8 80 -1 46 3 79 11
89 12 15 14 59 4 184 l-5 72 -134 0 -134 0 0 -79z m-3770 -2292 c0 -6 -4 -7
-10 -4 -5 3 -10 11 -10 16 0 6 5 7 10 4 6 -3 10 -11 10 -16z m77 -41 c-3 -7
-5 -2 -5 12 0 14 2 19 5 13 2 -7 2 -19 0 -25z m-17 -108 c-9 -51 -17 -60 -16
-18 1 29 11 58 20 58 2 0 0 -18 -4 -40z m90 -307 c0 -19 -3 -24 -10 -17 -6 6
-8 18 -4 27 9 24 14 21 14 -10z m-10 -59 c0 -15 -4 -23 -10 -19 -7 4 -9 -3 -5
-22 l7 -28 -16 29 c-18 32 -23 73 -6 46 8 -13 10 -12 10 3 0 9 5 17 10 17 6 0
10 -12 10 -26z m3645 16 c3 -5 -1 -10 -9 -10 -8 0 -20 -8 -25 -17 -9 -15 -10
-14 -11 10 0 20 5 27 19 27 11 0 23 -4 26 -10z m-2484 -48 c-20 -7 -12 -20 9
-15 11 3 20 10 20 15 0 5 4 7 9 3 6 -3 16 1 23 9 11 11 20 11 56 0 24 -7 50
-10 58 -7 8 3 14 0 14 -6 0 -8 6 -9 18 -2 27 15 273 5 283 -11 5 -7 9 -9 9 -4
0 5 9 1 21 -10 16 -14 20 -26 15 -52 -7 -46 -23 -62 -61 -62 -31 0 -33 -2 -37
-39 -2 -22 1 -37 6 -34 5 3 14 -1 20 -9 15 -20 44 -29 52 -17 9 15 33 -9 31
-32 -1 -10 -5 -19 -9 -19 -4 0 -4 -7 -1 -17 4 -9 2 -14 -3 -11 -5 4 -9 -16 -9
-44 0 -27 -4 -52 -8 -55 -5 -3 -6 -11 -3 -18 5 -13 -33 -65 -47 -65 -14 0 -7
38 8 44 9 3 12 12 8 23 -13 36 -42 45 -155 49 -61 3 -113 6 -117 8 -13 9 -117
-16 -128 -31 -6 -8 -16 -12 -21 -9 -6 4 -7 -7 -2 -30 7 -29 6 -33 -6 -23 -12
9 -13 6 -8 -19 4 -17 1 -32 -5 -36 -6 -4 -8 -12 -5 -18 4 -7 2 -8 -5 -4 -6 4
-9 11 -6 16 3 4 -9 10 -25 12 -17 3 -30 2 -30 -1 0 -13 18 -33 26 -30 5 1 10
-5 12 -14 2 -9 -3 -17 -10 -17 -8 0 -23 -7 -34 -16 -18 -15 -18 -15 4 -9 21 6
25 -1 21 -31 0 -4 5 -11 13 -15 8 -5 -3 -8 -30 -6 -33 1 -41 5 -36 17 3 8 7
21 8 28 1 7 7 17 14 24 12 12 2 40 -24 65 -10 11 -13 9 -17 -9 -3 -20 -5 -18
-12 11 -7 31 -9 33 -22 16 -13 -18 -14 -18 -29 1 -14 17 -15 17 -10 1 3 -10 2
-15 -3 -12 -5 3 -12 -5 -14 -17 l-4 -23 -8 23 c-4 12 -14 22 -22 22 -8 0 -11
5 -8 10 3 6 0 10 -8 10 -23 0 -41 29 -39 62 2 25 0 29 -18 23 -22 -7 -25 1
-10 25 6 10 10 11 10 3 0 -7 7 -13 15 -13 8 0 15 5 15 11 0 5 -4 7 -10 4 -10
-6 -20 25 -20 60 0 11 -3 37 -6 59 -5 27 -3 37 5 32 6 -4 11 -1 11 8 0 19 15
20 75 4 24 -7 47 -9 50 -6 4 3 3 22 -1 43 -6 31 -10 36 -33 35 -50 -4 -58 -1
-38 14 9 7 17 18 17 25 0 20 39 51 66 51 14 0 23 4 19 10 -3 6 -1 10 4 10 6 0
11 -6 11 -12 0 -8 3 -9 8 -3 4 6 13 10 20 11 6 1 19 2 27 3 9 0 23 17 33 37
13 28 18 32 21 18 2 -10 -2 -20 -8 -22z m-341 -12 c0 -5 -4 -10 -10 -10 -5 0
-10 5 -10 10 0 6 5 10 10 10 6 0 10 -4 10 -10z m-749 -116 c-11 -17 -11 -17
-6 4 4 13 2 22 -4 22 -6 0 -11 5 -11 12 0 8 6 7 16 -4 13 -13 14 -20 5 -34z
m929 -38 c0 -19 -26 -27 -39 -12 -13 15 -4 26 21 26 10 0 18 -6 18 -14z m-820
-27 c0 -6 -4 -7 -10 -4 -5 3 -10 11 -10 16 0 6 5 7 10 4 6 -3 10 -11 10 -16z
m1534 -15 c3 -8 2 -12 -4 -9 -6 3 -10 10 -10 16 0 14 7 11 14 -7z m1346 -9
c16 -30 0 -75 -26 -75 -20 0 -50 -34 -70 -78 -14 -31 -18 -33 -47 -27 -37 8
-72 35 -45 35 17 0 28 20 28 52 0 22 48 72 95 100 41 23 49 22 65 -7z m-2203
-27 c-3 -7 -5 -2 -5 12 0 14 2 19 5 13 2 -7 2 -19 0 -25z m1445 -18 c14 -24
14 -31 3 -40 -19 -16 -48 -104 -35 -108 15 -5 12 -26 -12 -71 -30 -57 -54 -54
-66 6 -7 32 -7 52 -1 60 7 8 4 25 -10 54 -12 24 -21 48 -21 55 0 7 18 28 40
47 48 40 77 39 102 -3z m1074 15 c14 -22 15 -31 4 -71 l-13 -45 -43 7 c-35 5
-44 3 -44 -9 0 -8 -8 -17 -17 -21 -20 -6 -51 -25 -70 -43 -10 -9 -10 -12 0
-16 6 -3 2 -6 -11 -6 -33 -1 -61 59 -43 93 13 24 50 46 77 46 9 0 35 20 58 45
49 51 78 57 102 20z m-2981 -38 c0 -23 -3 -43 -7 -44 -20 -7 -28 -1 -28 17 0
11 5 20 10 20 6 0 10 11 10 25 0 14 3 25 8 25 4 0 7 -19 7 -43z m3557 -14 c33
-32 35 -59 8 -119 -17 -37 -25 -44 -50 -44 -16 0 -40 -4 -54 -10 -14 -5 -28
-5 -30 -1 -3 5 -18 11 -33 14 -20 5 -34 18 -49 49 -20 40 -25 43 -60 43 -36 0
-40 -4 -60 -42 -11 -24 -24 -40 -27 -36 -4 3 -7 1 -7 -5 0 -7 -6 -12 -13 -12
-9 0 -14 13 -15 36 -1 28 3 37 18 41 16 4 20 14 20 44 0 38 1 39 36 39 20 0
42 -6 48 -14 15 -19 94 -28 104 -11 11 18 83 54 111 55 14 0 38 -12 53 -27z
m-3736 -9 c-4 -9 -9 -15 -11 -12 -3 3 -3 13 1 22 4 9 9 15 11 12 3 -3 3 -13
-1 -22z m3367 19 c-7 -2 -19 -2 -25 0 -7 3 -2 5 12 5 14 0 19 -2 13 -5z
m-2716 -35 c-3 -7 -5 -2 -5 12 0 14 2 19 5 13 2 -7 2 -19 0 -25z m-585 -63
c-15 -33 -32 -38 -32 -9 0 8 5 12 10 9 6 -4 10 7 10 26 0 25 3 29 14 20 11
-10 11 -17 -2 -46z m95 13 c-3 -8 -6 -5 -6 6 -1 11 2 17 5 13 3 -3 4 -12 1
-19z m269 -13 c2 -32 -12 -32 -18 0 -3 15 -1 25 6 25 6 0 12 -11 12 -25z m34
15 c0 -5 -5 -10 -11 -10 -5 0 -7 5 -4 10 3 6 8 10 11 10 2 0 4 -4 4 -10z
m4374 -9 c14 -15 15 -24 6 -40 -6 -12 -15 -21 -20 -21 -4 0 -14 -2 -22 -5 -19
-7 -39 31 -32 60 8 31 43 34 68 6z m-4324 -21 c0 -5 -5 -10 -11 -10 -5 0 -7 5
-4 10 3 6 8 10 11 10 2 0 4 -4 4 -10z m897 -42 c-3 -8 -6 -5 -6 6 -1 11 2 17
5 13 3 -3 4 -12 1 -19z m-1130 6 c-3 -4 -2 -15 3 -24 7 -13 6 -20 -5 -24 -11
-4 -15 1 -15 18 0 21 7 36 18 36 3 0 2 -3 -1 -6z m163 0 c0 0 -9 -11 -20 -24
-11 -13 -20 -36 -20 -52 0 -15 -4 -28 -10 -28 -15 0 -12 33 4 66 8 15 13 30
11 34 -2 3 5 6 16 6 10 0 19 -1 19 -2z m-9 -60 c-12 -16 -21 -21 -21 -13 0 21
33 65 38 51 2 -7 -6 -24 -17 -38z m-130 -15 c-5 -13 -10 -19 -10 -12 -1 15 10
45 15 40 3 -2 0 -15 -5 -28z m1070 -10 c-9 -22 -10 -22 -10 -3 -1 11 2 24 6
27 12 12 14 0 4 -24z m-929 -1 c-7 -7 -12 -8 -12 -2 0 14 12 26 19 19 2 -3 -1
-11 -7 -17z m67 -20 c0 -16 -2 -18 -6 -8 -3 8 -11 18 -17 22 -7 5 -4 8 7 8 11
0 17 -7 16 -22z m-198 -11 c-10 -9 -11 -8 -5 6 3 10 9 15 12 12 3 -3 0 -11 -7
-18z m1634 7 c24 -9 49 -64 36 -77 -6 -6 -11 -17 -11 -24 0 -19 27 -16 39 4 7
14 23 17 83 16 106 -1 107 -1 114 -31 9 -44 13 -52 23 -52 15 0 42 31 35 41
-8 13 24 42 50 45 11 1 45 -9 74 -24 52 -25 53 -25 106 -9 29 10 69 15 87 13
43 -6 139 -43 160 -62 25 -22 79 -15 79 11 0 15 48 26 56 13 3 -4 11 -5 17 -2
7 4 9 3 4 -1 -4 -5 0 -17 10 -27 18 -20 65 -25 62 -5 -3 26 2 37 16 37 9 0 18
12 22 30 3 17 11 30 18 30 25 0 44 -12 39 -25 -7 -17 43 -55 72 -55 13 0 29
-9 36 -20 7 -11 19 -20 26 -20 7 0 30 -9 51 -20 33 -16 56 -19 158 -17 119 2
121 2 168 45 24 22 53 13 100 -30 44 -42 45 -44 34 -78 -19 -56 -39 -99 -48
-105 -5 -2 -17 -28 -27 -56 -26 -73 -66 -98 -159 -100 -69 -1 -107 -15 -131
-47 -6 -9 -18 -13 -26 -9 -20 7 -30 77 -11 77 6 0 16 6 20 13 4 8 22 22 38 33
17 10 32 21 35 24 3 3 21 13 41 22 34 15 37 21 41 63 2 25 -2 56 -9 68 -7 12
-12 17 -13 11 -1 -30 -87 -43 -129 -20 -19 10 -28 11 -38 2 -7 -6 -19 -16 -27
-23 -10 -9 -13 -24 -9 -53 3 -24 2 -40 -4 -40 -6 0 -25 -3 -42 -6 -24 -5 -31
-3 -31 9 0 19 -58 129 -73 139 -14 9 -60 -1 -69 -15 -4 -7 -11 -7 -20 1 -18
14 -58 -10 -58 -35 0 -11 -6 -14 -22 -8 -13 3 -27 6 -33 6 -31 0 -106 -11
-114 -15 -5 -4 -21 -2 -35 4 -19 7 -29 6 -39 -5 -8 -7 -27 -14 -43 -14 -16 0
-36 -1 -44 -2 -32 -4 -50 2 -50 16 0 8 -4 23 -9 33 -5 9 -12 25 -15 35 -4 11
-16 17 -35 17 -48 0 -62 -9 -55 -36 5 -19 2 -24 -12 -24 -27 1 -66 36 -63 57
3 22 -10 63 -20 63 -12 0 -28 -43 -23 -62 2 -10 8 -18 14 -18 14 0 -48 -46
-82 -61 -27 -11 -135 5 -146 22 -8 14 -46 10 -79 -7 -53 -27 -109 -29 -149 -5
-34 22 -37 22 -65 5 -25 -15 -35 -16 -55 -6 -24 11 -38 52 -17 52 14 0 24 52
11 60 -9 6 -9 13 0 30 10 19 9 27 -8 50 -24 32 -20 40 20 40 35 0 56 -40 39
-76 -7 -17 -6 -25 3 -33 26 -22 106 26 106 64 0 8 8 15 17 15 39 0 -23 27 -75
33 -86 10 -89 16 -37 70 43 45 65 54 100 41z m-1715 -14 c0 -5 -4 -10 -10 -10
-5 0 -10 5 -10 10 0 6 5 10 10 10 6 0 10 -4 10 -10z m784 -23 c7 -6 4 -7 -6
-3 -10 3 -18 2 -18 -2 0 -4 -9 -8 -20 -9 -20 -2 -20 -1 2 22 15 15 24 20 27
12 2 -7 9 -16 15 -20z m-880 -35 c-1 -2 -11 1 -21 7 -10 6 -14 11 -9 11 5 0 3
8 -5 18 -7 9 -1 6 13 -8 14 -14 24 -27 22 -28z m631 38 c-3 -5 -12 -10 -18
-10 -7 0 -6 4 3 10 19 12 23 12 15 0z m-565 -4 c0 -2 -7 -7 -16 -10 -8 -3 -12
-2 -9 4 6 10 25 14 25 6z m12 -28 c-7 -7 -12 -8 -12 -2 0 14 12 26 19 19 2 -3
-1 -11 -7 -17z m768 2 c0 -5 -5 -10 -11 -10 -5 0 -7 5 -4 10 3 6 8 10 11 10 2
0 4 -4 4 -10z m50 -8 c0 -11 -3 -12 -13 -3 -8 6 -17 8 -20 4 -4 -3 -7 -1 -7 5
0 6 9 10 20 9 11 -1 20 -8 20 -15z m734 12 c24 -9 19 -24 -8 -24 -31 0 -56 10
-56 21 0 10 40 12 64 3z m-914 -39 c0 -5 -5 -3 -10 5 -7 12 -11 10 -19 -10 -9
-22 -10 -23 -10 -4 -1 27 20 49 31 31 4 -6 8 -16 8 -22z m360 -50 c0 -5 -5 -3
-10 5 -5 8 -10 20 -10 25 0 6 5 3 10 -5 5 -8 10 -19 10 -25z m-357 10 c-3 -9
-8 -14 -10 -11 -3 3 -2 9 2 15 9 16 15 13 8 -4z m82 6 c3 -5 1 -12 -5 -16 -5
-3 -10 1 -10 9 0 18 6 21 15 7z m242 -13 c-3 -8 -6 -5 -6 6 -1 11 2 17 5 13 3
-3 4 -12 1 -19z m477 16 c11 -4 16 -19 16 -45 0 -35 -3 -39 -25 -39 -14 0 -25
-4 -25 -10 0 -5 -6 -7 -12 -5 -16 6 -22 85 -7 85 6 0 7 5 4 10 -7 11 24 13 49
4z m-550 -70 c3 -8 2 -12 -4 -9 -6 3 -10 10 -10 16 0 14 7 11 14 -7z m2932
-79 c26 -26 32 -70 12 -77 -12 -5 -61 1 -161 18 -29 5 -41 13 -48 32 -5 14 -8
31 -5 38 15 39 160 31 202 -11z m554 -72 c21 -18 27 -58 10 -68 -5 -3 -10 -17
-10 -30 0 -31 -46 -85 -72 -85 -52 0 -63 68 -18 110 17 16 30 38 30 52 0 42
25 51 60 21z m-424 -1 c17 -11 26 -47 18 -76 -5 -21 -9 -24 -24 -16 -26 14
-57 12 -63 -2 -3 -9 -9 -10 -21 -3 -22 13 -17 30 7 29 14 -1 18 5 14 23 -7 39
36 67 69 45z m-151 -101 c26 -15 30 -24 29 -57 -1 -21 -7 -40 -13 -42 -6 -2
-11 -10 -11 -18 0 -7 -11 -16 -25 -20 -29 -7 -55 14 -55 46 0 12 -5 31 -11 42
-8 15 -8 27 2 44 15 28 42 30 84 5z m-2833 -133 c-7 -7 -12 -8 -12 -2 0 14 12
26 19 19 2 -3 -1 -11 -7 -17z m2740 -43 c0 -5 -5 -11 -11 -13 -6 -2 -11 4 -11
13 0 9 5 15 11 13 6 -2 11 -8 11 -13z m-769 -62 c-7 -2 -21 -2 -30 0 -10 3 -4
5 12 5 17 0 24 -2 18 -5z"/>
<path d="M5270 9695 c0 -12 12 -15 53 -13 40 1 44 2 17 5 -19 3 -39 9 -44 14
-15 14 -26 11 -26 -6z"/>
<path d="M5420 9679 c0 -5 8 -9 18 -9 9 0 35 -2 57 -5 37 -5 38 -4 10 5 -46
15 -85 19 -85 9z"/>
<path d="M5585 9680 c-3 -5 1 -10 10 -10 9 0 13 5 10 10 -3 6 -8 10 -10 10 -2
0 -7 -4 -10 -10z"/>
<path d="M5756 9623 c-6 -14 -5 -15 5 -6 7 7 10 15 7 18 -3 3 -9 -2 -12 -12z"/>
<path d="M6465 9080 c-3 -5 -1 -10 4 -10 6 0 11 5 11 10 0 6 -2 10 -4 10 -3 0
-8 -4 -11 -10z"/>
<path d="M5100 12538 c-52 -4 -113 -13 -135 -20 -49 -16 -150 -15 -230 2 -69
15 -175 14 -223 -1 -23 -8 -122 -9 -317 -4 -192 5 -284 4 -289 -3 -3 -6 -1
-23 6 -37 10 -23 10 -28 -5 -36 -9 -6 -17 -16 -17 -24 0 -7 -15 -25 -32 -39
-54 -44 -98 -89 -129 -132 -17 -22 -48 -51 -70 -65 -23 -13 -55 -39 -72 -57
-46 -49 -108 -143 -114 -174 -9 -45 -33 -59 -77 -47 -21 6 -44 8 -52 5 -7 -3
-16 0 -20 6 -4 7 -9 6 -15 -3 -6 -10 -9 -11 -9 -1 0 6 -6 12 -14 12 -8 0 -16
7 -18 17 -2 9 -3 -60 -3 -153 l0 -169 27 -13 c35 -16 43 -57 28 -137 -6 -33
-15 -80 -19 -103 -6 -32 -3 -62 10 -110 20 -72 54 -239 71 -340 12 -71 3 -92
-41 -93 -40 -1 -56 -12 -57 -38 -2 -31 13 -47 54 -56 37 -8 72 -47 72 -81 0
-30 17 -40 38 -20 71 63 171 46 257 -44 44 -46 135 -83 135 -55 0 7 3 20 6 28
3 10 -2 18 -15 22 -15 4 -21 15 -21 36 0 17 -4 28 -9 25 -5 -3 -12 9 -16 27
-11 50 -12 67 -3 61 4 -3 8 6 8 20 0 13 3 32 7 42 6 16 7 16 14 -2 7 -17 8
-16 9 6 2 14 2 29 1 34 -1 6 0 20 4 33 7 28 25 21 25 -10 0 -18 -2 -20 -11 -7
-9 12 -10 12 -5 -3 3 -10 6 -24 6 -30 1 -18 29 35 30 54 0 18 -26 33 -42 23
-5 -3 -14 -18 -19 -32 -9 -24 -11 -25 -20 -9 -13 22 -1 67 12 46 6 -10 9 -5 9
17 0 16 7 39 15 50 14 18 14 18 15 -4 0 -13 4 -20 10 -17 6 3 7 -1 4 -9 -4
-10 -1 -16 10 -16 10 0 13 6 10 15 -10 26 12 16 25 -11 11 -26 12 -26 26 -8
13 17 15 10 14 -66 -1 -112 3 -155 19 -169 9 -9 12 -2 12 34 0 25 3 44 8 42 4
-3 5 16 3 41 -2 26 -6 41 -8 35 -3 -7 -9 -13 -15 -13 -7 0 -8 14 -5 38 4 24 1
47 -8 66 -13 25 -13 27 0 22 19 -7 28 9 33 58 2 22 7 47 12 56 5 9 6 27 3 40
-5 18 -3 22 9 17 20 -7 38 11 38 37 0 20 -1 20 -16 -2 -24 -35 -33 -17 -16 35
9 26 18 40 20 32 3 -7 13 -21 22 -29 10 -8 20 -24 23 -35 5 -16 5 -15 4 5 -1
30 11 70 22 70 5 0 7 19 5 42 -1 23 1 49 6 57 7 12 10 5 11 -24 2 -36 3 -37 6
-8 5 36 33 68 33 38 0 -17 1 -17 20 0 10 9 18 20 17 24 -3 9 36 71 45 71 4 0
8 -8 9 -17 1 -12 4 -9 9 7 4 14 6 47 5 75 -2 27 3 65 10 85 7 19 16 48 19 63
4 15 10 25 15 23 5 -3 9 6 9 20 0 28 17 52 29 40 4 -4 1 -12 -7 -17 -13 -9
-13 -10 0 -6 10 3 14 14 12 32 -5 41 44 78 108 80 27 1 60 9 74 18 14 10 45
17 68 17 41 1 42 1 23 16 -22 18 -21 18 98 -2 23 -3 43 -1 52 6 11 9 18 7 36
-11 16 -16 23 -18 29 -9 6 9 10 8 18 -5 5 -10 14 -15 21 -11 6 4 8 13 5 19 -4
7 4 2 18 -10 30 -28 40 -29 62 -4 14 15 24 17 47 11 19 -6 27 -5 23 1 -3 6 4
7 20 3 20 -5 26 -2 26 10 0 19 16 20 50 3 45 -24 58 -26 56 -12 0 8 4 13 9 12
6 -1 9 -6 7 -10 -1 -5 10 -8 25 -7 16 1 37 2 48 1 17 -1 17 -3 5 -11 -12 -8
-10 -10 9 -10 16 0 21 -4 17 -15 -3 -8 0 -16 7 -16 48 -5 74 -9 100 -19 17 -5
33 -8 35 -5 3 3 0 5 -6 5 -7 0 -12 5 -12 10 0 15 29 -2 63 -36 21 -20 27 -23
27 -10 0 21 13 20 72 -6 40 -19 57 -36 92 -88 63 -97 91 -168 157 -401 63
-224 68 -238 105 -282 33 -39 30 -59 -2 -23 -20 21 -33 27 -55 24 -16 -3 -29
0 -29 5 0 6 -3 8 -6 4 -4 -3 -23 2 -44 13 -42 21 -55 17 -39 -12 9 -17 8 -18
-10 -9 -11 6 -47 11 -80 11 -54 0 -61 -3 -80 -29 -12 -16 -21 -36 -21 -44 0
-9 -5 -19 -11 -22 -6 -4 -8 -14 -5 -22 3 -8 -1 -21 -10 -30 -8 -8 -13 -18 -10
-20 3 -3 16 7 30 22 20 21 31 26 51 21 14 -4 74 -11 133 -17 59 -5 116 -12
127 -16 l20 -6 -20 -8 c-14 -5 -15 -8 -5 -8 9 -1 24 -14 33 -31 10 -16 23 -30
28 -30 6 0 7 -4 4 -10 -3 -5 -2 -10 4 -10 6 0 8 -7 5 -15 -4 -8 -1 -15 6 -15
8 0 11 -15 8 -45 -2 -36 0 -45 13 -45 38 0 47 23 64 160 9 74 25 172 35 218
20 91 16 101 -35 88 -22 -6 -25 -12 -25 -50 0 -65 -12 -136 -22 -136 -19 0 -1
288 22 370 12 41 24 100 27 130 3 32 11 58 19 63 8 4 14 13 14 19 0 5 12 19
26 30 28 22 23 34 -16 40 -37 5 -50 40 -50 138 0 83 -2 89 -22 96 l-22 7 20
16 c19 15 21 33 29 206 13 317 16 369 18 394 2 27 -6 32 -84 57 l-57 17 -24
-28 c-18 -20 -28 -50 -37 -103 -13 -83 -24 -104 -55 -100 -17 2 -22 13 -29 58
-4 30 -7 71 -7 91 0 20 -5 41 -12 46 -7 6 -60 13 -118 17 -64 4 -114 13 -127
22 -12 8 -37 14 -55 14 -19 0 -43 7 -56 15 -59 42 -177 63 -302 53z m-1170
-1437 c0 -5 -7 -11 -15 -15 -8 -3 -15 -13 -15 -22 0 -10 -2 -15 -5 -12 -11 10
7 58 21 58 8 0 14 -4 14 -9z m-20 -96 c-7 -9 -15 -13 -17 -11 -7 7 7 26 19 26
6 0 6 -6 -2 -15z m20 -37 c0 -18 -2 -20 -9 -8 -6 8 -7 18 -5 22 9 14 14 9 14
-14z m2028 -173 c-3 -3 -9 2 -12 12 -6 14 -5 15 5 6 7 -7 10 -15 7 -18z
m-1989 -40 c0 -5 -6 -1 -14 9 -8 10 -11 24 -8 29 6 10 21 -16 22 -38z"/>
<path d="M6480 12426 c0 -21 6 -24 40 -28 38 -3 40 -2 40 24 0 26 -3 28 -40
28 -36 0 -40 -3 -40 -24z"/>
<path d="M3266 12203 c-3 -7 -12 -13 -20 -13 -8 0 -18 -4 -21 -10 -7 -11 32
-100 44 -100 4 0 19 14 32 32 13 17 29 37 36 43 22 22 4 53 -33 57 -21 2 -35
-1 -38 -9z"/>
<path d="M2598 11946 c-21 -6 -46 -20 -57 -31 -19 -20 -19 -21 3 -105 12 -47
32 -104 44 -127 12 -23 27 -66 33 -95 21 -102 28 -88 48 102 10 88 17 154 26
223 5 44 -27 55 -97 33z"/>
<path d="M6467 11655 c-37 -36 -75 -65 -85 -65 -23 0 -172 -53 -172 -62 0 -12
34 -14 80 -5 25 5 61 10 81 11 34 3 38 0 54 -36 9 -21 20 -63 24 -93 5 -39 17
-66 38 -93 42 -52 45 -70 29 -143 -13 -57 -22 -218 -11 -208 15 15 35 179 39
319 3 91 10 199 17 240 6 41 12 102 13 135 2 85 -19 85 -107 0z"/>
<path d="M1935 11693 c-43 -5 -115 -33 -115 -44 0 -5 7 -12 15 -15 8 -3 17
-21 21 -40 3 -19 10 -37 15 -40 26 -16 67 -123 73 -193 3 -41 8 -77 11 -79 2
-2 19 11 38 30 30 30 35 43 42 104 4 38 16 92 26 119 31 78 40 136 24 152 -13
12 -78 15 -150 6z"/>
<path d="M7362 11660 c0 -14 2 -19 5 -12 2 6 2 18 0 25 -3 6 -5 1 -5 -13z"/>
<path d="M7287 11609 c-69 -10 -100 -31 -126 -84 -17 -34 -21 -65 -23 -195 -3
-148 -2 -157 20 -192 13 -21 29 -38 36 -38 8 0 24 -8 37 -19 13 -10 30 -16 37
-14 9 3 12 -11 12 -51 0 -65 -19 -77 -21 -13 -1 41 -2 41 -9 -13 -9 -56 -4
-82 11 -59 13 22 19 6 24 -77 3 -43 3 -73 -1 -66 -3 6 -23 12 -44 12 -36 0
-38 -2 -44 -39 -3 -22 -10 -41 -16 -43 -5 -2 -2 -18 8 -37 12 -25 13 -36 4
-39 -6 -2 -14 -19 -18 -38 -3 -19 -10 -37 -15 -40 -11 -7 -12 -60 0 -99 4 -17
5 -77 2 -134 -5 -80 -3 -105 7 -108 7 -3 39 1 72 8 71 16 76 24 84 139 4 47 9
103 12 125 10 66 10 238 0 269 -6 19 -5 30 3 35 6 4 13 30 16 57 5 55 15 154
20 198 2 15 10 36 18 45 24 27 47 79 47 106 0 36 -46 102 -81 114 -19 7 -29
17 -29 30 0 12 3 21 8 22 4 0 18 2 31 3 23 3 73 48 104 96 16 24 16 28 -1 57
-52 96 -62 100 -185 82z"/>
<path d="M1525 11414 c-22 -8 -67 -21 -100 -29 -33 -7 -105 -31 -160 -53 -55
-22 -131 -50 -170 -61 -129 -39 -160 -74 -119 -136 14 -21 20 -23 72 -18 42 5
71 15 110 41 l53 36 62 -13 c34 -7 66 -17 72 -22 5 -5 13 -9 18 -9 15 0 137
130 137 146 0 19 16 18 24 -2 4 -9 13 -14 22 -10 9 4 12 2 8 -5 -4 -7 1 -10
12 -7 13 2 21 16 26 48 4 25 10 60 13 78 5 28 3 32 -17 32 -13 -1 -41 -8 -63
-16z"/>
<path d="M4970 11020 c-8 -5 -10 -10 -5 -10 6 0 17 5 25 10 8 5 11 10 5 10 -5
0 -17 -5 -25 -10z"/>
<path d="M4007 11013 c-11 -19 -17 -133 -7 -133 5 0 11 12 11 28 1 15 3 46 4
70 3 41 1 50 -8 35z"/>
<path d="M4881 11008 c-14 -5 -30 -7 -37 -4 -7 3 -14 0 -16 -5 -2 -7 -13 -6
-32 1 -21 8 -32 8 -40 0 -8 -8 -5 -9 9 -5 17 6 18 5 5 -7 -9 -7 -14 -22 -12
-33 3 -20 2 -20 -12 -1 -9 10 -13 24 -10 30 3 6 -5 -1 -19 -16 -13 -14 -46
-43 -73 -63 l-48 -37 40 7 c38 6 38 5 11 -7 -26 -12 -19 -13 67 -14 53 -1 93
2 91 6 -11 17 21 23 104 19 132 -5 276 -3 295 4 13 5 15 11 7 25 -8 14 -6 19
5 19 9 0 14 -11 14 -30 0 -22 4 -28 16 -23 9 3 18 6 20 6 3 0 2 6 -1 13 -4 6
0 3 9 -7 15 -18 16 -18 26 8 12 34 9 74 -7 88 -11 8 -12 7 -7 -8 5 -17 4 -18
-8 -2 -16 19 -115 47 -149 42 -13 -2 -42 -6 -64 -9 -29 -4 -35 -3 -20 4 19 9
19 10 -3 10 -12 1 -39 -6 -59 -14 -20 -9 -39 -12 -42 -7 -11 15 -36 20 -60 10z
m-161 -77 c-11 -22 -30 -28 -30 -11 0 6 4 10 9 10 5 0 12 10 16 23 3 12 9 17
11 10 3 -7 0 -21 -6 -32z"/>
<path d="M2533 10899 c-36 -10 -41 -30 -21 -74 15 -33 34 -32 69 5 32 33 37
65 13 74 -18 7 -19 7 -61 -5z"/>
<path d="M4628 10823 c6 -2 18 -2 25 0 6 3 1 5 -13 5 -14 0 -19 -2 -12 -5z"/>
<path d="M4545 10800 c-15 -6 -8 -8 25 -8 33 1 39 3 25 9 -25 9 -25 9 -50 -1z"/>
<path d="M4904 10770 c-167 -34 -322 -87 -357 -122 -16 -16 -16 -18 -2 -18 9
0 24 4 33 9 9 5 31 11 49 14 17 3 38 9 45 13 7 4 27 7 46 6 19 -2 41 3 49 9
26 22 162 23 223 2 30 -11 53 -23 52 -28 -2 -4 1 -11 7 -15 7 -4 2 -12 -14
-20 -32 -17 -32 -28 0 -25 14 2 25 -1 25 -6 0 -17 19 -9 25 11 4 11 15 20 26
20 11 0 17 -4 14 -10 -3 -5 -2 -10 4 -10 17 0 23 20 10 36 -7 8 -18 13 -26 10
-7 -3 -13 1 -13 9 0 19 4 19 40 0 31 -16 40 -9 18 13 -8 8 -9 12 -1 12 8 0 6
10 -3 30 -11 21 -23 30 -39 30 -18 0 -23 4 -19 15 4 8 2 15 -2 16 -5 0 -16 2
-24 5 -43 12 -83 11 -166 -6z m34 -47 c-10 -2 -28 -2 -40 0 -13 2 -5 4 17 4
22 1 32 -1 23 -4z"/>
<path d="M5621 10743 c-12 -8 -18 -19 -15 -25 4 -6 3 -8 -2 -5 -6 3 -16 2 -23
-3 -11 -6 -9 -14 8 -39 12 -17 27 -31 32 -31 5 0 9 -5 9 -11 0 -15 30 -38 50
-39 10 0 11 3 3 11 -6 6 -9 18 -6 27 4 10 2 13 -5 8 -7 -4 -12 -2 -12 3 0 15
133 3 178 -15 24 -10 34 -21 38 -44 9 -45 41 -39 35 7 -1 7 7 10 19 8 26 -5
22 23 -8 53 -12 12 -22 27 -22 32 0 6 -7 10 -15 10 -7 0 -18 6 -22 13 -11 17
-118 50 -175 53 -28 1 -55 -4 -67 -13z m99 -24 c-30 -4 -57 -6 -59 -4 -7 8 65
21 89 16 18 -4 10 -7 -30 -12z m-50 -39 c0 -5 -4 -10 -10 -10 -5 0 -10 5 -10
10 0 6 5 10 10 10 6 0 10 -4 10 -10z m105 -10 c-8 -12 -65 -13 -65 -2 0 5 16
9 35 10 21 1 33 -3 30 -8z"/>
<path d="M3812 10680 c0 -14 2 -19 5 -12 2 6 2 18 0 25 -3 6 -5 1 -5 -13z"/>
<path d="M3957 10639 c7 -7 15 -10 18 -7 3 3 -2 9 -12 12 -14 6 -15 5 -6 -5z"/>
<path d="M3970 10590 c0 -5 5 -10 10 -10 6 0 10 5 10 10 0 6 -4 10 -10 10 -5
0 -10 -4 -10 -10z"/>
<path d="M4968 10583 c7 -3 16 -2 19 1 4 3 -2 6 -13 5 -11 0 -14 -3 -6 -6z"/>
<path d="M3857 10553 c-4 -3 -7 -11 -7 -17 0 -6 5 -5 12 2 6 6 9 14 7 17 -3 3
-9 2 -12 -2z"/>
<path d="M1398 10545 c-2 -3 -79 -9 -169 -15 -90 -5 -181 -13 -202 -16 l-38
-7 2 -60 c2 -54 0 -62 -25 -83 -33 -29 -53 -29 -130 -4 -71 24 -102 25 -149 5
-59 -25 -101 -19 -143 17 -34 30 -41 32 -103 30 -68 -3 -99 6 -209 61 -36 18
-47 19 -75 10 -69 -25 -101 -26 -121 -4 -11 12 -23 21 -28 21 -4 0 -8 -95 -8
-211 0 -187 2 -210 15 -199 8 7 15 19 15 27 0 8 7 22 16 30 13 14 40 16 167
14 183 -4 300 -4 388 -1 36 2 75 -3 87 -9 11 -6 38 -10 59 -10 36 2 116 -11
195 -32 29 -7 49 -6 83 6 59 20 170 19 265 -1 41 -9 125 -17 185 -19 245 -7
323 -13 388 -30 39 -10 72 -14 76 -9 5 5 4 43 -1 84 -5 41 -11 93 -14 115 -3
22 -8 46 -13 53 -11 17 -58 23 -96 12 -16 -5 -55 -11 -85 -14 -30 -3 -87 -8
-127 -12 -68 -6 -72 -6 -98 20 -26 26 -27 30 -24 124 3 95 3 96 -21 103 -32 9
-55 10 -62 4z m-178 -149 c0 -3 -4 -8 -10 -11 -5 -3 -10 -1 -10 4 0 6 5 11 10
11 6 0 10 -2 10 -4z"/>
<path d="M3970 10520 c0 -5 5 -10 10 -10 6 0 10 5 10 10 0 6 -4 10 -10 10 -5
0 -10 -4 -10 -10z"/>
<path d="M3850 10500 c0 -5 5 -10 10 -10 6 0 10 5 10 10 0 6 -4 10 -10 10 -5
0 -10 -4 -10 -10z"/>
<path d="M3697 10295 c-10 -14 -14 -25 -9 -25 10 0 42 33 42 43 0 14 -16 5
-33 -18z"/>
<path d="M2380 10300 c-36 -3 -85 -16 -110 -28 -25 -12 -59 -22 -76 -22 -43 0
-62 -26 -85 -115 -10 -43 -19 -81 -19 -84 0 -4 22 -8 49 -8 27 0 64 -6 82 -12
19 -6 78 -12 132 -14 54 -2 101 -7 105 -13 6 -8 42 -10 93 -6 8 1 26 24 39 51
21 46 22 54 10 96 -9 33 -29 62 -72 105 -32 33 -64 59 -71 58 -7 0 -41 -4 -77
-8z"/>
<path d="M2980 10201 c-19 -9 -44 -22 -55 -29 -11 -6 -45 -22 -77 -35 -61 -27
-82 -53 -72 -91 5 -21 14 -26 52 -31 26 -4 63 -12 82 -20 19 -7 38 -13 43 -14
66 -6 109 -16 118 -27 6 -8 19 -14 28 -14 9 0 21 -10 26 -22 11 -24 24 -26
115 -16 53 7 58 19 36 85 -9 26 -16 59 -16 74 0 29 -3 32 -100 95 -56 37 -114
64 -134 64 -6 -1 -27 -9 -46 -19z"/>
<path d="M5411 10176 c2 -2 42 -6 89 -9 49 -3 72 -2 55 3 -30 8 -152 13 -144
6z"/>
<path d="M3408 10085 c-1 -17 -2 -41 -2 -55 -1 -17 -13 -32 -40 -50 -33 -22
-36 -26 -21 -35 10 -5 33 -27 53 -47 19 -21 40 -38 46 -38 6 0 21 19 33 41 20
36 21 43 8 62 -7 12 -21 42 -31 67 -10 25 -23 54 -31 65 -12 18 -13 18 -15
-10z"/>
<path d="M986 10052 c-8 -13 5 -82 16 -82 5 0 11 8 15 18 3 9 13 25 20 34 8 9
12 22 8 27 -7 13 -52 15 -59 3z"/>
<path d="M0 9980 c0 -35 3 -60 7 -57 7 8 5 108 -2 116 -3 2 -5 -24 -5 -59z"/>
<path d="M320 9992 c0 -6 -5 -12 -11 -12 -6 0 -24 -13 -39 -30 -28 -30 -50
-39 -50 -20 0 6 -7 10 -16 10 -13 0 -14 -3 -5 -14 13 -16 9 -20 -34 -30 -16
-4 -37 -13 -45 -21 -33 -28 -61 -28 -91 1 l-29 28 0 -86 0 -86 93 -4 c50 -2
113 0 139 5 46 7 138 -1 242 -23 28 -5 58 -8 68 -4 27 8 22 34 -7 34 -29 0
-76 20 -90 38 -7 8 -26 12 -50 10 -39 -3 -40 -2 -43 33 -3 30 1 37 19 42 17 5
20 11 15 31 -4 16 -2 26 4 26 7 0 7 6 0 20 -6 11 -17 20 -25 20 -8 0 -21 10
-29 22 -9 12 -16 17 -16 10z"/>
<path d="M5100 9990 c0 -5 5 -10 10 -10 6 0 10 5 10 10 0 6 -4 10 -10 10 -5 0
-10 -4 -10 -10z"/>
<path d="M2471 9964 c-12 -14 -12 -17 0 -25 8 -5 19 -9 24 -10 6 0 18 -2 27
-4 26 -5 32 14 12 36 -21 23 -44 24 -63 3z"/>
<path d="M460 9895 c0 -28 6 -30 44 -15 39 15 33 40 -9 40 -31 0 -35 -3 -35
-25z"/>
<path d="M4400 9899 c-16 -30 -8 -31 13 -3 10 13 13 24 8 24 -6 0 -15 -9 -21
-21z"/>
<path d="M4331 9874 c0 -11 3 -14 6 -6 3 7 2 16 -1 19 -3 4 -6 -2 -5 -13z"/>
<path d="M4484 9878 c7 -23 -3 -50 -15 -42 -5 3 -9 -4 -9 -15 0 -12 7 -21 15
-21 8 0 14 3 13 8 0 4 2 15 7 25 4 10 3 28 -4 40 -6 12 -9 14 -7 5z"/>
<path d="M2014 9849 c-17 -19 -19 -86 -3 -91 19 -6 -11 -45 -50 -65 -45 -23
-77 -51 -68 -59 7 -7 186 -21 357 -29 47 -2 106 -7 133 -11 43 -5 47 -4 47 15
0 11 -5 31 -11 43 -8 20 -16 23 -44 20 -19 -2 -49 1 -66 7 -21 7 -37 7 -49 1
-14 -7 -23 -6 -34 5 -8 8 -21 15 -28 15 -29 0 -37 22 -31 80 7 76 -8 92 -84
88 -34 -2 -60 -9 -69 -19z"/>
<path d="M4266 9845 c-4 -15 -3 -31 2 -34 5 -3 13 -19 17 -36 7 -26 9 -27 12
-9 3 17 9 21 26 17 14 -3 18 -2 10 4 -6 5 -10 21 -9 36 3 22 0 27 -12 22 -8
-3 -20 2 -27 11 -11 15 -13 14 -19 -11z"/>
<path d="M591 9842 c-13 -25 -18 -95 -6 -99 6 -2 26 10 45 25 l34 29 -24 31
c-29 36 -36 38 -49 14z"/>
<path d="M4430 9851 c0 -5 5 -13 10 -16 6 -3 10 -2 10 4 0 5 -4 13 -10 16 -5
3 -10 2 -10 -4z"/>
<path d="M4586 9834 c-10 -25 -7 -34 9 -34 8 0 15 9 15 19 0 26 -16 35 -24 15z"/>
<path d="M2790 9814 c0 -13 9 -29 19 -36 24 -14 16 -38 -12 -38 -12 0 -45 -10
-73 -21 l-51 -22 -47 28 c-40 23 -51 26 -72 17 -19 -10 -24 -9 -24 3 0 19 -26
20 -33 2 -7 -19 8 -41 22 -33 6 4 14 -1 18 -11 11 -30 28 -42 44 -32 20 12 50
11 75 -4 58 -34 86 -57 114 -92 16 -21 30 -34 30 -30 0 4 7 2 15 -5 8 -7 15
-22 15 -34 0 -21 4 -22 78 -21 77 1 132 11 132 24 0 4 59 7 130 8 118 0 130
-2 130 -18 0 -25 21 -35 32 -15 8 14 19 16 71 10 34 -3 67 -12 73 -20 17 -21
64 -36 134 -43 81 -8 87 -24 31 -80 -45 -45 -45 -45 -71 -31 -15 8 -20 6 -26
-13 -4 -12 -7 -24 -8 -27 0 -3 -11 -17 -25 -32 -24 -27 -50 -35 -65 -21 -12
12 -99 32 -142 33 -24 0 -47 -6 -53 -14 -25 -30 -66 -38 -106 -22 -49 21 -62
20 -70 -4 -5 -15 -15 -20 -39 -20 -17 0 -38 -6 -44 -12 -16 -16 -71 -19 -94
-7 -10 6 -18 18 -18 28 0 24 -31 51 -58 51 -27 0 -74 -50 -66 -70 3 -8 8 -27
11 -42 5 -25 3 -28 -23 -29 -46 -2 -58 2 -72 23 -8 10 -20 17 -27 14 -8 -3
-19 1 -25 9 -6 7 -24 15 -41 17 -24 4 -34 0 -46 -18 -8 -13 -13 -31 -11 -40 5
-25 48 -52 88 -56 19 -1 51 -13 70 -26 40 -27 74 -24 119 9 37 27 86 20 76
-11 -7 -23 60 -100 87 -100 10 0 22 -9 28 -19 5 -11 19 -23 30 -26 11 -3 20
-13 20 -20 0 -20 18 -28 58 -27 18 1 41 -5 49 -13 8 -8 23 -15 34 -15 10 0 19
-4 19 -9 0 -22 81 0 162 43 l87 46 46 -20 c26 -11 52 -20 59 -20 21 0 55 35
53 54 -2 19 2 22 76 57 60 29 71 42 70 85 -1 19 3 34 8 34 6 0 5 8 -1 19 -14
28 -12 39 4 19 12 -16 14 -16 23 5 7 15 6 52 -3 117 -7 52 -18 133 -24 180
-16 120 -59 307 -73 318 -7 5 -23 13 -37 17 -14 4 -36 16 -49 27 -13 10 -31
16 -40 13 -9 -2 -40 -1 -68 4 -29 4 -53 4 -53 0 0 -5 6 -9 13 -9 8 0 19 -11
25 -24 9 -21 7 -27 -16 -47 -55 -48 -142 -76 -184 -60 -16 6 -28 17 -28 24 0
7 -10 23 -23 35 -22 21 -26 22 -65 8 -23 -8 -42 -11 -42 -6 0 5 -16 6 -34 3
-25 -4 -40 -1 -51 11 -21 20 -32 20 -43 0 -6 -10 -31 -20 -63 -25 -62 -10 -82
2 -81 48 0 37 -13 59 -38 66 -16 4 -20 0 -20 -19z m225 -124 c3 -5 -3 -10 -15
-10 -12 0 -18 5 -15 10 3 6 10 10 15 10 5 0 12 -4 15 -10z m-360 -560 c3 -5 1
-10 -4 -10 -6 0 -11 5 -11 10 0 6 2 10 4 10 3 0 8 -4 11 -10z"/>
<path d="M4410 9815 c0 -8 4 -15 10 -15 5 0 7 7 4 15 -4 8 -8 15 -10 15 -2 0
-4 -7 -4 -15z"/>
<path d="M4577 9768 c-3 -12 -2 -29 4 -37 8 -14 9 -13 7 4 -1 11 1 25 5 32 4
6 3 14 -2 17 -5 3 -11 -4 -14 -16z"/>
<path d="M6583 9767 c-15 -6 -23 -19 -23 -34 0 -29 26 -30 58 -3 39 33 13 59
-35 37z"/>
<path d="M4381 9723 c0 -13 -5 -23 -11 -23 -5 0 -10 -5 -10 -12 0 -8 6 -7 16
4 9 8 14 24 11 34 -4 16 -5 15 -6 -3z"/>
<path d="M1255 9690 c-4 -6 5 -10 19 -10 14 0 26 5 26 10 0 6 -9 10 -19 10
-11 0 -23 -4 -26 -10z"/>
<path d="M4400 9686 c-13 -13 -13 -36 0 -36 6 0 10 7 10 16 0 10 6 14 15 10 9
-3 15 0 15 8 0 15 -25 17 -40 2z"/>
<path d="M4635 9683 c2 -10 4 -22 4 -28 1 -5 6 -3 11 5 8 12 10 11 10 -7 0
-14 6 -23 15 -23 8 0 15 -4 15 -10 0 -5 5 -10 10 -10 15 0 12 46 -3 59 -8 6
-17 8 -20 4 -4 -3 -9 2 -13 11 -8 22 -33 21 -29 -1z"/>
<path d="M1568 9683 c-36 -9 -16 -21 45 -26 82 -8 129 -5 134 9 6 17 -130 30
-179 17z"/>
<path d="M3315 9391 c-3 -5 -1 -12 5 -16 12 -7 30 2 30 16 0 12 -27 12 -35 0z"/>
<path d="M940 9339 c-8 -4 -23 -10 -32 -13 -23 -7 -23 -18 2 -46 11 -13 23
-35 27 -49 14 -60 93 -125 126 -104 7 4 23 8 37 9 43 2 78 15 84 32 3 10 9 23
12 30 3 6 0 12 -7 12 -7 0 -21 8 -31 17 -11 10 -49 22 -86 28 -63 11 -67 13
-64 36 4 36 -37 65 -68 48z"/>
<path d="M1393 9313 c-15 -5 -17 -49 -3 -58 5 -3 18 3 29 14 18 18 18 20 3 34
-9 8 -23 12 -29 10z"/>
<path d="M473 9294 c-30 -15 -33 -20 -33 -64 l0 -48 66 -4 c77 -4 86 6 75 82
-6 43 -8 45 -41 48 -19 1 -50 -5 -67 -14z"/>
<path d="M3080 9285 c-14 -16 -5 -35 16 -35 15 0 20 35 5 44 -5 3 -14 -1 -21
-9z"/>
<path d="M124 9250 c-12 -5 -44 -7 -73 -6 l-51 3 0 -39 c0 -21 2 -38 3 -38 2
0 18 7 36 16 18 9 44 14 59 11 15 -3 50 -11 77 -17 60 -13 95 -6 95 18 0 26
-20 42 -51 42 -15 0 -31 5 -34 10 -7 12 -32 12 -61 0z"/>
<path d="M1583 9213 c-4 -10 -22 -33 -39 -51 -18 -19 -30 -40 -27 -48 7 -18
67 -19 85 -1 7 7 28 19 46 25 30 10 36 9 59 -14 23 -23 27 -24 59 -12 19 6 34
18 34 25 0 7 5 13 10 13 6 0 10 9 10 21 0 18 -4 20 -32 12 -18 -4 -54 -8 -80
-8 -37 0 -53 6 -75 28 -34 32 -41 33 -50 10z"/>
<path d="M1362 9140 c0 -14 2 -19 5 -12 2 6 2 18 0 25 -3 6 -5 1 -5 -13z"/>
<path d="M2239 9080 c-1 -11 -2 -25 -3 -31 -1 -7 18 -17 41 -24 38 -11 44 -11
59 6 16 18 16 20 -6 44 -30 32 -89 36 -91 5z"/>
<path d="M2312 8911 c-10 -6 -10 -11 3 -21 13 -10 15 -24 11 -51 -4 -26 -2
-40 9 -49 8 -7 15 -18 15 -26 0 -26 19 -23 33 6 14 28 14 30 -3 30 -11 0 -19
10 -23 27 -7 36 0 51 26 56 l22 4 -21 2 c-12 0 -27 8 -34 16 -14 17 -20 18
-38 6z"/>
<path d="M2528 8899 c-10 -5 -24 -9 -30 -8 -7 1 -23 1 -36 0 -23 -1 -23 -2 7
-27 27 -22 37 -25 72 -19 46 8 61 31 34 51 -22 16 -25 17 -47 3z"/>
<path d="M4395 8900 c-3 -6 1 -7 9 -4 18 7 21 14 7 14 -6 0 -13 -4 -16 -10z"/>
<path d="M500 8691 c0 -6 -6 -11 -14 -11 -18 0 -33 -19 -41 -52 -6 -24 -3 -28
41 -47 61 -27 178 -36 199 -14 42 42 -13 123 -83 123 -22 0 -54 3 -71 6 -20 4
-31 3 -31 -5z"/>
<path d="M2734 8667 c-37 -45 -79 -54 -289 -61 -55 -2 -103 -5 -107 -6 -5 -1
-14 -3 -20 -4 -7 0 -15 -17 -18 -36 -4 -29 -10 -35 -37 -41 -40 -8 -63 -26
-63 -49 0 -32 26 -43 85 -36 52 5 56 4 67 -19 13 -29 34 -32 59 -9 17 15 116
34 199 37 29 2 37 -3 49 -28 8 -16 19 -33 25 -37 19 -13 64 -9 81 8 23 23 156
38 171 19 9 -12 25 -8 98 22 69 29 93 44 112 72 25 36 31 61 15 61 -4 0 -25
16 -45 35 -43 40 -52 43 -61 16 -11 -36 -44 -55 -93 -55 -68 0 -97 10 -111 38
-7 13 -24 29 -37 35 -13 5 -26 22 -30 36 -8 31 -24 32 -50 2z"/>
<path d="M841 8641 c-12 -16 -21 -41 -21 -55 0 -35 59 -52 124 -35 43 11 45
10 74 -20 30 -32 30 -32 124 -29 68 2 102 -1 122 -11 21 -12 33 -13 57 -4 32
13 71 5 111 -21 30 -19 98 -22 158 -6 59 16 135 23 165 16 13 -3 35 -17 47
-31 19 -20 35 -25 95 -28 49 -3 80 0 99 9 14 8 37 14 51 14 38 0 58 15 78 62
11 24 24 46 30 50 6 5 5 8 -2 8 -7 0 -13 9 -13 20 0 25 -45 28 -71 4 -16 -14
-20 -14 -43 1 -14 10 -26 25 -26 35 0 23 -32 31 -77 18 -20 -5 -47 -8 -59 -5
-13 2 -24 0 -24 -4 0 -13 -38 -11 -42 3 -8 24 -56 -1 -75 -39 -27 -56 -62 -57
-113 -4 -26 26 -50 42 -67 43 -97 6 -140 5 -156 -4 -10 -5 -47 -10 -81 -11
-48 -2 -69 -7 -86 -22 -27 -25 -88 -22 -112 6 -10 12 -29 19 -52 19 -29 0 -39
-5 -48 -25 -12 -27 -48 -34 -48 -10 0 8 -4 15 -9 15 -5 0 -11 10 -15 23 -5 21
-42 47 -66 47 -5 0 -18 -13 -29 -29z"/>
<path d="M5210 8635 c-7 -9 -8 -15 -2 -15 5 0 12 7 16 15 3 8 4 15 2 15 -2 0
-9 -7 -16 -15z"/>
<path d="M0 8624 c0 -8 5 -12 10 -9 6 3 10 10 10 16 0 5 -4 9 -10 9 -5 0 -10
-7 -10 -16z"/>
<path d="M190 8631 c0 -15 29 -33 45 -27 22 8 6 36 -21 36 -13 0 -24 -4 -24
-9z"/>
<path d="M5390 8630 c-8 -5 -10 -10 -5 -10 6 0 17 5 25 10 8 5 11 10 5 10 -5
0 -17 -5 -25 -10z"/>
<path d="M5286 8605 c-4 -12 -2 -13 12 -7 9 5 24 12 32 15 9 3 4 6 -11 6 -15
1 -29 -6 -33 -14z"/>
<path d="M5177 8590 c-3 -11 -1 -20 4 -20 5 0 9 9 9 20 0 11 -2 20 -4 20 -2 0
-6 -9 -9 -20z"/>
<path d="M5217 8603 c-4 -3 -7 -11 -7 -17 0 -6 5 -5 12 2 6 6 9 14 7 17 -3 3
-9 2 -12 -2z"/>
<path d="M6285 8603 c-28 -7 -36 -16 -26 -32 7 -11 13 -10 35 5 14 11 26 22
26 27 0 7 -3 7 -35 0z"/>
<path d="M6800 8559 c0 -6 -9 -24 -20 -39 -23 -32 -19 -79 9 -104 16 -14 21
-12 60 23 l43 39 -32 32 c-17 18 -29 38 -26 46 3 9 -2 14 -14 14 -11 0 -20 -5
-20 -11z"/>
<path d="M7025 8510 c-3 -5 -1 -10 4 -10 6 0 11 5 11 10 0 6 -2 10 -4 10 -3 0
-8 -4 -11 -10z"/>
<path d="M7067 8476 c13 -10 20 -23 17 -31 -10 -24 18 -43 55 -37 58 8 61 74
2 70 -14 -1 -42 2 -61 6 -34 8 -34 7 -13 -8z"/>
<path d="M7310 8469 c0 -5 5 -7 10 -4 6 3 10 8 10 11 0 2 -4 4 -10 4 -5 0 -10
-5 -10 -11z"/>
<path d="M7461 8326 c-10 -12 -6 -26 10 -26 11 0 19 29 10 35 -5 2 -14 -1 -20
-9z"/>
<path d="M8687 8303 c-14 -4 -17 -11 -12 -30 3 -14 13 -32 21 -41 13 -12 19
-13 39 -2 13 7 27 20 30 28 10 28 -38 55 -78 45z"/>
<path d="M7 8293 c-19 -18 -5 -43 30 -52 20 -6 39 -9 41 -7 2 3 -6 18 -19 35
-22 30 -39 38 -52 24z"/>
<path d="M7506 8255 c-4 -11 2 -15 24 -15 22 0 28 4 24 15 -4 8 -14 15 -24 15
-10 0 -20 -7 -24 -15z"/>
<path d="M7726 8248 c-11 -15 -21 -19 -39 -14 -22 5 -27 1 -39 -30 -28 -71 -2
-120 90 -168 46 -23 60 -26 95 -19 54 11 127 -11 162 -50 20 -21 35 -27 66
-27 35 0 41 3 50 29 8 22 18 31 45 35 41 8 49 4 69 -35 11 -20 23 -29 40 -29
14 0 25 5 25 11 0 5 26 21 58 35 31 14 68 31 82 39 19 10 29 10 43 1 14 -9 21
-8 30 5 7 9 30 18 52 21 36 5 45 1 92 -39 30 -25 61 -43 70 -41 24 4 46 54 46
102 0 32 -4 41 -22 48 -12 4 -33 21 -46 37 -26 30 -61 45 -71 30 -3 -5 -16 -9
-30 -9 -14 0 -34 -9 -45 -19 -35 -32 -69 -32 -121 0 -43 25 -51 27 -75 16 -16
-6 -33 -18 -39 -26 -14 -18 -69 -6 -94 21 -26 28 -53 17 -44 -18 5 -18 3 -25
-4 -20 -6 3 -13 0 -16 -6 -3 -7 -4 -1 -2 15 2 15 0 27 -5 27 -4 0 -10 9 -14
20 -3 11 -22 27 -41 36 -29 14 -42 15 -73 5 -47 -14 -68 -35 -53 -54 10 -12 2
-81 -11 -93 -3 -3 -26 4 -52 16 -54 24 -71 56 -44 80 15 13 16 20 6 50 -12 34
-13 35 -70 36 -47 2 -60 -2 -71 -18z"/>
<path d="M242 8248 c-45 -12 -51 -34 -17 -66 l28 -26 18 23 c11 13 19 31 19
41 0 10 6 20 12 22 26 9 -29 14 -60 6z"/>
<path d="M1103 8203 c-18 -6 -16 -23 1 -23 8 0 17 -6 19 -12 3 -7 6 -3 6 9 1
24 -8 33 -26 26z"/>
<path d="M2043 8172 c-37 -32 -42 -42 -40 -75 1 -27 -4 -42 -15 -48 -9 -5 -26
-24 -37 -42 -23 -38 -48 -43 -106 -21 -22 8 -49 14 -60 13 -58 -6 -74 1 -91
37 -10 20 -32 51 -50 68 -18 17 -36 44 -39 59 -8 29 -38 37 -52 14 -4 -8 -15
-16 -23 -19 -9 -3 -26 -26 -39 -52 -19 -36 -30 -46 -49 -46 -27 0 -92 -36 -92
-51 0 -5 -6 -9 -12 -9 -16 0 -39 -47 -31 -66 4 -11 -30 -34 -53 -34 -12 0 -2
30 14 39 15 9 15 12 2 21 -8 6 -26 13 -40 16 -14 4 -37 20 -52 35 -27 29 -61
37 -87 20 -20 -13 -6 -40 28 -54 38 -16 101 -73 101 -92 0 -7 -4 -17 -10 -20
-5 -3 -10 -16 -10 -28 0 -16 -3 -18 -12 -9 -7 7 -26 12 -44 12 -20 0 -34 6
-38 16 -4 11 -13 14 -27 11 -15 -4 -23 1 -30 20 -9 24 -29 28 -36 7 -5 -15 67
-84 88 -84 9 0 24 -11 33 -24 19 -29 11 -37 -43 -43 -89 -10 -86 -11 -84 24
l3 31 -51 -2 c-57 -3 -69 9 -51 49 10 21 8 26 -9 36 -13 6 -39 8 -65 4 -44 -6
-57 -21 -29 -31 23 -9 21 -100 -2 -113 -14 -8 -15 -12 -6 -22 19 -19 107 -31
243 -33 69 -1 144 -7 167 -13 45 -11 123 0 123 18 0 5 19 9 43 9 54 0 69 11
66 46 -4 50 0 64 19 64 9 0 26 7 36 15 17 13 22 13 38 -2 27 -24 23 -67 -7
-81 -31 -14 -32 -28 -2 -36 13 -3 37 -19 54 -35 23 -21 43 -30 79 -34 27 -2
64 -9 82 -15 30 -10 37 -7 109 41 42 29 92 66 110 84 31 29 33 33 21 55 -16
28 -29 39 -43 35 -12 -4 -33 34 -27 50 2 7 8 11 12 8 4 -3 13 2 19 9 10 12 17
9 43 -17 16 -18 36 -40 43 -50 12 -17 15 -17 51 -2 22 9 64 35 94 59 30 24 60
45 65 47 30 13 85 52 85 62 0 19 -51 77 -67 77 -13 0 -11 6 10 28 33 35 34 52
3 52 -20 0 -24 -6 -30 -40 -3 -22 -10 -41 -14 -41 -4 -1 -24 -3 -44 -4 -32 -2
-38 1 -38 17 0 11 5 28 10 38 7 14 6 21 -3 27 -8 4 -19 18 -26 31 -16 30 -29
28 -78 -16z m-455 -162 c2 -14 8 -30 13 -36 6 -7 -4 -17 -30 -28 -30 -14 -43
-16 -60 -7 -27 15 -26 21 4 50 14 13 25 30 25 38 0 26 45 11 48 -17z"/>
<path d="M2291 8191 c-29 -19 81 -64 131 -53 22 4 31 31 17 48 -13 16 -125 19
-148 5z"/>
<path d="M1773 8153 c-20 -8 -16 -51 6 -58 32 -10 71 11 71 40 0 22 -4 25 -32
24 -18 0 -39 -3 -45 -6z"/>
<path d="M1260 8116 c0 -8 5 -18 10 -21 6 -3 10 3 10 14 0 12 -4 21 -10 21 -5
0 -10 -6 -10 -14z"/>
<path d="M9005 8100 c3 -5 8 -10 11 -10 2 0 4 5 4 10 0 6 -5 10 -11 10 -5 0
-7 -4 -4 -10z"/>
<path d="M5191 8064 c0 -11 3 -14 6 -6 3 7 2 16 -1 19 -3 4 -6 -2 -5 -13z"/>
<path d="M532 8033 c-5 -10 -12 -30 -15 -44 -12 -49 -44 -74 -95 -74 l-47 0 0
-40 c-1 -47 -19 -79 -54 -95 -34 -16 -41 -4 -45 79 -2 36 -23 54 -58 49 -18
-2 -24 -14 -34 -63 -10 -48 -10 -63 0 -73 14 -14 239 -35 276 -25 24 6 25 11
5 33 -13 14 -13 19 1 38 9 13 33 34 54 47 36 23 74 85 85 137 8 39 -55 65 -73
31z"/>
<path d="M914 8035 c-8 -20 4 -35 27 -35 14 0 19 7 19 25 0 18 -5 25 -20 25
-11 0 -23 -7 -26 -15z"/>
<path d="M4777 7983 c3 -10 10 -24 16 -30 14 -19 -17 -27 -45 -12 -21 12 -68
20 -68 11 0 -1 14 -8 30 -13 27 -10 35 -23 31 -56 -1 -6 3 -14 9 -18 5 -3 10
0 10 8 0 7 11 23 24 34 l24 21 33 -23 c21 -17 37 -22 48 -16 9 5 21 6 28 4 7
-3 9 3 6 16 -3 12 -1 21 6 21 6 0 11 5 11 10 0 6 -7 10 -15 10 -17 0 -20 16
-5 25 15 9 12 25 -5 25 -8 0 -15 -6 -15 -14 0 -21 -23 -25 -37 -7 -9 13 -14
14 -24 4 -10 -10 -10 -16 -1 -25 18 -18 15 -28 -9 -28 -17 0 -20 5 -17 24 3
15 -2 27 -14 35 -24 15 -28 14 -21 -6z"/>
<path d="M4973 7990 c-13 -5 -23 -15 -23 -22 0 -16 20 -47 20 -33 0 6 4 4 9
-4 11 -18 32 -5 24 15 -3 9 0 20 7 24 7 4 9 13 6 19 -8 13 -13 13 -43 1z"/>
<path d="M0 7874 l0 -116 32 6 c49 10 61 26 47 64 -9 27 -8 36 5 51 27 30 20
69 -16 91 -64 39 -68 34 -68 -96z"/>
<path d="M948 7984 c-3 -5 -8 -21 -11 -35 -8 -33 22 -64 52 -54 26 8 26 17 0
41 -12 10 -25 28 -29 38 -3 11 -9 15 -12 10z"/>
<path d="M5906 7852 c-21 -513 -73 -955 -144 -1216 l-27 -99 -49 -14 c-125
-37 -218 -139 -252 -275 -14 -61 -15 -80 -5 -139 14 -78 52 -143 109 -185 20
-15 39 -29 42 -31 2 -2 -1 -7 -7 -11 -13 -8 -64 -114 -58 -120 2 -3 11 2 19
11 16 15 62 12 73 -6 4 -6 1 -7 -7 -2 -9 6 -10 2 -5 -16 4 -13 12 -25 16 -27
5 -2 4 -12 -1 -23 -18 -33 7 -22 55 26 49 50 60 78 51 129 -6 31 -4 35 26 45
139 48 238 195 238 351 0 81 -19 137 -67 197 -18 23 -33 50 -33 60 0 10 11 68
25 128 71 318 135 878 135 1187 l0 107 -41 11 c-23 6 -52 15 -65 20 l-23 9 -5
-117z m-86 -1395 c31 -15 54 -37 75 -71 27 -44 30 -58 30 -130 0 -90 -20 -147
-75 -216 -40 -50 -120 -90 -180 -90 -62 0 -131 43 -162 102 -18 35 -23 58 -22
123 0 67 5 90 31 146 62 135 189 192 303 136z"/>
<path d="M5773 6363 c-7 -2 -13 -12 -13 -20 0 -10 6 -13 16 -9 9 3 18 6 20 6
2 0 4 7 4 15 0 15 -6 17 -27 8z"/>
<path d="M5786 6305 c-10 -7 -15 -18 -11 -24 9 -15 45 5 45 24 0 19 -10 18
-34 0z"/>
<path d="M5796 6262 c-8 -14 5 -52 19 -52 7 0 17 6 23 13 7 9 4 17 -13 30 -13
9 -26 13 -29 9z"/>
<path d="M5053 7924 c-14 -31 -9 -44 17 -44 17 0 18 -4 10 -25 -6 -16 -6 -25
0 -25 6 0 10 5 10 11 0 5 15 16 33 24 19 8 39 21 46 29 11 13 9 15 -18 13 -17
-1 -31 -6 -31 -11 0 -6 -6 -4 -12 3 -10 11 -10 14 0 18 6 3 12 12 12 21 0 13
-2 14 -9 3 -6 -9 -11 -10 -15 -2 -12 19 -30 12 -43 -15z"/>
<path d="M8908 7908 c9 -9 15 -9 24 0 9 9 7 12 -12 12 -19 0 -21 -3 -12 -12z"/>
<path d="M3558 7874 c-26 -8 -50 -19 -53 -24 -3 -6 34 -88 83 -183 86 -165
135 -285 135 -332 0 -12 -13 -52 -27 -89 -41 -101 -45 -209 -14 -307 29 -89
81 -159 237 -321 l105 -108 27 30 c16 16 35 30 44 30 37 0 25 32 -42 113 -100
119 -208 258 -223 287 -17 32 -18 133 -2 187 18 62 79 118 149 139 80 23 149
29 168 14 8 -6 18 -9 23 -6 17 10 81 -23 120 -62 20 -20 51 -64 67 -97 16 -33
40 -78 54 -100 13 -22 39 -73 57 -114 31 -72 56 -111 72 -111 4 0 12 10 17 23
7 15 21 24 45 27 30 4 35 8 32 29 -2 14 -15 49 -28 79 -13 30 -24 60 -24 67 0
25 -119 253 -150 289 -37 42 -123 95 -195 120 -28 10 -93 19 -150 22 -55 3
-110 7 -121 10 -12 2 -62 35 -112 73 -73 57 -97 83 -129 138 -40 71 -65 119
-82 166 -12 31 -17 31 -83 11z"/>
<path d="M4970 7870 c0 -5 7 -10 16 -10 8 0 12 5 9 10 -3 6 -10 10 -16 10 -5
0 -9 -4 -9 -10z"/>
<path d="M5013 7855 c-24 -28 -22 -30 9 -14 19 10 20 9 15 -11 -4 -16 -3 -20
5 -12 6 6 7 20 2 36 l-9 25 -22 -24z"/>
<path d="M4910 7850 c0 -5 5 -10 10 -10 6 0 10 5 10 10 0 6 -4 10 -10 10 -5 0
-10 -4 -10 -10z"/>
<path d="M4850 7810 c0 -5 6 -10 14 -10 8 0 18 5 21 10 3 6 -3 10 -14 10 -12
0 -21 -4 -21 -10z"/>
<path d="M4947 7814 c-4 -4 -4 -17 -1 -29 3 -13 -1 -27 -10 -34 -17 -14 -11
-41 9 -41 7 0 15 -9 18 -20 7 -25 2 -25 -24 1 -15 15 -28 19 -47 14 -15 -4
-29 -8 -31 -11 -4 -4 8 -32 28 -64 8 -13 38 -91 55 -143 5 -15 17 -6 67 47
110 118 136 160 96 155 -27 -3 -36 2 -39 23 -2 15 -11 22 -33 25 -76 8 -94 25
-60 53 8 7 15 16 15 21 0 10 -34 12 -43 3z"/>
<path d="M4820 7781 c0 -6 5 -13 10 -16 6 -3 10 1 10 9 0 9 -4 16 -10 16 -5 0
-10 -4 -10 -9z"/>
<path d="M9567 7633 c-4 -3 -7 -23 -7 -44 0 -32 12 -49 36 -49 2 0 4 23 4 50
0 35 -4 50 -13 50 -8 0 -17 -3 -20 -7z"/>
<path d="M585 7560 c3 -5 13 -10 21 -10 8 0 14 5 14 10 0 6 -9 10 -21 10 -11
0 -17 -4 -14 -10z"/>
<path d="M285 7540 c4 -6 11 -8 16 -5 14 9 11 15 -7 15 -8 0 -12 -5 -9 -10z"/>
<path d="M1440 7543 c-29 -6 -64 -43 -52 -55 5 -5 20 -10 34 -12 14 -1 39 -13
57 -25 36 -26 56 -22 73 14 10 23 9 29 -13 50 -26 26 -60 35 -99 28z"/>
<path d="M9200 7516 c0 -20 4 -36 9 -36 5 0 17 -3 26 -6 14 -6 16 0 13 32 -2
32 -7 40 -25 42 -20 3 -23 -1 -23 -32z"/>
<path d="M1100 7521 c-15 -4 -26 -15 -28 -29 -3 -20 1 -22 43 -22 45 0 46 1
43 27 -3 30 -18 36 -58 24z"/>
<path d="M1289 7497 c-12 -16 -14 -28 -7 -40 19 -35 82 -7 76 35 -4 33 -47 36
-69 5z"/>
<path d="M9347 7472 c-10 -2 -16 -9 -14 -15 4 -15 67 -22 67 -8 0 14 -31 28
-53 23z"/>
<path d="M9013 7440 c-19 -8 -22 -16 -22 -64 1 -55 1 -56 47 -81 25 -14 53
-23 63 -20 18 6 87 -4 195 -27 44 -9 55 -8 77 7 15 9 27 27 27 38 0 22 -75 97
-98 97 -7 0 -20 7 -29 15 -9 9 -23 13 -35 10 -10 -4 -25 -1 -33 5 -8 7 -25 10
-37 7 -22 -5 -84 3 -118 16 -8 3 -25 2 -37 -3z m150 -107 c-7 -2 -19 -2 -25 0
-7 3 -2 5 12 5 14 0 19 -2 13 -5z"/>
<path d="M7365 7430 c-3 -6 10 -29 29 -52 20 -23 36 -45 36 -50 0 -4 7 -8 15
-8 10 0 15 -10 15 -31 0 -62 118 -152 136 -104 4 8 18 15 33 15 14 0 37 9 51
20 l25 19 -22 16 c-60 43 -66 66 -28 107 25 27 32 48 18 48 -5 1 -51 3 -104 5
-93 4 -146 10 -181 21 -9 3 -19 0 -23 -6z"/>
<path d="M8730 7397 c0 -7 16 -31 35 -53 34 -39 34 -39 35 -13 0 19 -10 34
-35 53 -24 18 -35 23 -35 13z"/>
<path d="M7833 7385 c-13 -9 -23 -27 -23 -40 0 -13 -5 -27 -11 -31 -6 -3 -8
-16 -5 -27 3 -12 1 -26 -4 -33 -16 -18 0 -72 26 -88 21 -14 27 -14 76 11 29
14 61 30 70 35 10 4 30 8 45 8 33 0 60 15 45 24 -14 8 7 67 31 84 17 13 23 47
10 55 -5 3 -60 8 -123 11 -97 6 -118 5 -137 -9z"/>
<path d="M8233 7362 c-7 -5 -13 -36 -15 -77 -2 -64 -1 -70 17 -71 29 0 79 -16
86 -26 3 -5 18 -4 35 2 l29 11 -25 19 c-14 11 -34 20 -45 20 -11 0 -25 4 -31
8 -19 12 -23 51 -7 67 30 31 -7 70 -44 47z"/>
<path d="M8506 7346 c-64 -12 -80 -28 -47 -46 12 -6 21 -17 21 -25 0 -8 8 -19
18 -24 15 -9 15 -12 2 -21 -8 -5 -30 -10 -47 -10 -34 0 -43 -13 -21 -26 15
-10 188 -12 194 -3 2 4 -5 18 -16 32 -24 30 -26 57 -5 57 8 0 15 4 15 9 0 19
-12 41 -22 41 -6 0 -16 6 -22 13 -9 11 -23 12 -70 3z"/>
<path d="M9555 7330 c-11 -17 5 -32 21 -19 7 6 11 15 8 20 -7 12 -21 11 -29
-1z"/>
<path d="M9520 7280 c0 -6 7 -10 15 -10 8 0 15 2 15 4 0 2 -7 6 -15 10 -8 3
-15 1 -15 -4z"/>
<path d="M8768 7193 c-31 -5 -39 -23 -10 -23 9 0 29 -11 44 -25 34 -31 34 -31
43 2 6 27 -14 55 -39 52 -6 -1 -23 -4 -38 -6z"/>
<path d="M0 6999 c0 -135 3 -170 12 -161 16 16 48 15 94 -4 46 -19 194 -21
254 -3 32 10 48 8 103 -10 80 -27 202 -40 367 -40 69 0 139 0 155 -1 68 -1 87
21 120 138 4 13 19 36 33 51 32 34 51 60 58 84 4 9 10 17 15 17 13 0 0 27 -14
27 -7 1 -26 7 -44 14 -26 10 -39 10 -72 -1 -42 -13 -53 -33 -26 -44 20 -7 19
-38 -2 -64 -10 -12 -27 -32 -38 -46 -23 -29 -60 -34 -74 -8 -5 9 -12 34 -16
54 -4 20 -16 44 -26 54 -10 9 -19 25 -19 34 0 9 -6 25 -14 35 -12 17 -18 18
-64 7 -41 -9 -61 -8 -110 4 -41 10 -70 12 -93 6 -20 -5 -54 -4 -83 1 -39 8
-55 7 -80 -5 -49 -25 -64 -28 -91 -18 -23 9 -25 7 -25 -20 0 -17 5 -30 10 -30
6 0 10 -7 10 -16 0 -11 6 -15 20 -11 11 3 23 1 26 -4 10 -17 -7 -49 -27 -49
-34 0 -60 -20 -75 -56 -14 -34 -43 -45 -70 -26 -16 10 -24 64 -13 84 7 13 3
21 -13 32 -28 20 -38 20 -38 1 0 -22 -60 -46 -82 -34 -10 5 -18 16 -18 24 0 9
-4 23 -9 33 -13 23 -25 73 -22 94 1 9 -3 19 -9 23 -7 4 -10 -49 -10 -166z
m848 49 c19 -19 14 -39 -14 -64 -20 -20 -29 -22 -45 -13 -27 14 -43 57 -28 75
14 17 71 18 87 2z m-435 -23 c-3 -9 -8 -14 -10 -11 -3 3 -2 9 2 15 9 16 15 13
8 -4z m691 -11 c9 -24 7 -28 -9 -14 -17 14 -20 30 -6 30 5 0 12 -7 15 -16z"/>
<path d="M8994 7155 c-3 -8 -3 -19 1 -25 8 -13 42 -13 50 0 8 13 72 13 81 -1
4 -7 26 -8 64 -4 34 4 74 2 100 -5 48 -13 90 -6 90 14 0 21 -49 34 -100 27
-25 -3 -76 -3 -115 1 -117 11 -165 10 -171 -7z"/>
<path d="M8822 7083 c2 -22 10 -29 36 -34 17 -4 32 -6 32 -5 0 7 -58 66 -64
66 -4 0 -6 -12 -4 -27z"/>
<path d="M9360 6970 c0 -5 7 -10 16 -10 8 0 12 5 9 10 -3 6 -10 10 -16 10 -5
0 -9 -4 -9 -10z"/>
<path d="M9580 6725 c0 -8 5 -15 10 -15 6 0 10 7 10 15 0 8 -4 15 -10 15 -5 0
-10 -7 -10 -15z"/>
<path d="M0 6708 c0 -13 6 -18 17 -16 24 5 27 25 3 31 -15 4 -20 0 -20 -15z"/>
<path d="M400 6676 c0 -9 7 -16 16 -16 9 0 14 5 12 12 -6 18 -28 21 -28 4z"/>
<path d="M677 6683 c-4 -3 -7 -13 -7 -22 1 -13 3 -13 11 2 11 19 8 33 -4 20z"/>
<path d="M827 6684 c-9 -9 33 -40 63 -47 14 -3 34 -8 45 -12 11 -3 29 0 40 9
30 22 5 41 -53 41 -26 0 -56 4 -68 8 -11 4 -23 4 -27 1z"/>
<path d="M7711 6651 c-20 -13 -5 -63 29 -101 16 -18 37 -54 47 -79 21 -57 121
-249 134 -257 5 -3 26 -5 47 -6 31 0 48 -9 81 -39 23 -22 46 -39 51 -39 17 0
22 22 9 46 -11 21 -10 27 12 50 21 23 29 25 70 20 31 -4 58 -1 82 9 64 26 177
12 177 -22 0 -11 6 -14 23 -9 12 4 47 11 77 16 30 5 71 14 90 19 50 16 105 13
120 -4 7 -8 18 -15 25 -15 8 0 15 -6 18 -12 4 -13 140 -15 179 -2 25 8 23 38
-5 68 -18 19 -27 22 -35 14 -6 -6 -15 -8 -19 -4 -4 4 -1 11 6 15 20 13 -19 48
-69 61 -63 17 -83 84 -28 92 17 2 24 11 26 31 2 15 8 27 13 27 15 0 10 27 -6
34 -9 3 -30 -2 -49 -10 -30 -15 -44 -15 -178 5 -80 12 -190 21 -245 21 -67 0
-105 4 -118 14 -34 23 -83 29 -275 32 -182 3 -245 9 -265 25 -6 4 -17 4 -24 0z
m729 -111 c11 -11 20 -24 20 -30 0 -15 37 -12 69 5 27 13 31 13 64 -13 38 -28
46 -56 24 -85 -16 -23 -78 -25 -108 -4 -30 21 -58 22 -74 1 -10 -14 -16 -12
-48 19 -34 32 -36 37 -26 63 11 32 37 64 51 64 4 0 17 -9 28 -20z"/>
<path d="M8978 6618 c-15 -23 -15 -27 -2 -32 16 -6 27 13 22 40 -3 15 -6 14
-20 -8z"/>
<path d="M9510 6523 c0 -16 -7 -41 -15 -57 -12 -22 -13 -32 -3 -43 13 -16 16
-63 4 -81 -4 -7 -18 -12 -32 -12 -33 0 -32 -33 2 -48 19 -9 24 -17 19 -31 -4
-14 0 -23 15 -31 27 -14 54 -5 46 15 -3 8 -1 15 5 15 17 0 31 51 18 66 -6 8
-9 25 -7 38 3 14 1 31 -3 38 -5 7 -2 20 8 30 14 15 13 22 -11 72 -29 61 -46
71 -46 29z"/>
<path d="M124 6289 c-19 -7 -41 -49 -26 -49 4 0 16 -18 26 -40 11 -22 22 -40
26 -40 3 0 16 14 28 30 18 23 30 30 57 30 18 0 37 5 40 10 3 6 14 10 24 10 25
0 59 38 40 44 -28 9 -195 13 -215 5z"/>
<path d="M533 6263 c-27 -3 -33 -9 -33 -29 0 -63 -51 -93 -121 -73 -49 15 -60
16 -57 9 1 -3 -4 -14 -10 -26 -9 -17 -8 -25 9 -43 11 -11 24 -21 29 -21 15 0
12 -26 -5 -40 -9 -7 -14 -19 -11 -25 3 -8 -9 -12 -37 -11 -39 1 -42 3 -39 28
2 21 -4 30 -27 42 -16 9 -37 27 -47 40 -30 40 -48 37 -54 -9 -5 -38 -7 -40
-49 -49 -30 -7 -49 -6 -62 2 -17 11 -19 9 -19 -19 0 -26 2 -29 14 -20 8 7 32
11 52 9 36 -3 39 -6 47 -43 11 -53 2 -82 -30 -98 -20 -11 -27 -23 -30 -53 -3
-27 -11 -45 -28 -57 -18 -14 -25 -28 -25 -54 0 -33 1 -34 29 -28 16 3 79 8
140 10 118 4 132 -1 161 -54 11 -21 10 -26 -6 -38 -15 -11 -10 -13 43 -13 62
0 77 8 78 40 0 17 52 25 94 15 l25 -6 -43 -38 -43 -37 37 -11 c42 -13 85 -2
85 22 0 8 5 15 10 15 6 0 10 9 10 19 0 11 8 26 19 33 20 14 65 97 57 105 -2 3
10 33 29 66 18 34 54 114 80 177 26 63 53 128 61 144 8 16 14 35 14 41 0 16
-25 26 -44 19 -7 -3 -37 10 -66 28 -47 29 -62 33 -129 34 -42 1 -91 0 -108 -3z
m-95 -187 c6 -7 -17 -36 -28 -36 -4 0 -10 11 -12 24 -4 20 -1 24 15 20 11 -2
22 -6 25 -8z"/>
<path d="M3245 6124 c-33 -8 -76 -17 -95 -19 -19 -3 -87 -16 -150 -29 -63 -14
-140 -27 -170 -31 -30 -3 -71 -10 -90 -15 -36 -9 -104 -25 -151 -34 -14 -3
-37 -15 -51 -26 l-25 -19 23 -92 c13 -50 24 -101 24 -113 0 -51 42 -58 165
-26 43 11 130 29 194 41 64 11 136 25 161 30 25 5 90 15 145 23 115 16 124 19
146 49 13 17 14 33 8 77 -4 30 -8 79 -8 108 -1 38 -6 57 -21 72 -23 23 -24 23
-105 4z m97 -79 c3 -27 9 -69 13 -93 7 -36 5 -45 -16 -66 -19 -18 -39 -24
-101 -29 -79 -7 -141 -19 -218 -43 -25 -7 -101 -23 -170 -34 -69 -10 -149 -27
-178 -36 -31 -10 -56 -14 -61 -8 -4 5 -18 52 -30 103 -18 80 -19 97 -8 109 8
7 63 22 123 32 60 11 154 29 209 40 55 11 108 19 118 16 9 -2 31 3 48 11 16 8
53 19 82 23 29 5 68 13 87 19 19 5 49 9 65 8 28 -2 30 -5 37 -52z"/>
<path d="M3236 6053 c-11 -11 -7 -25 6 -17 8 5 9 2 5 -10 -4 -10 -7 -22 -7
-27 0 -6 -8 -9 -18 -7 -11 2 -26 -3 -36 -11 -14 -12 -19 -12 -34 2 -10 10 -23
13 -31 8 -9 -6 -7 -10 9 -14 18 -5 22 -11 18 -36 -5 -38 4 -40 26 -6 20 31 52
36 36 6 -19 -37 -13 -44 32 -37 53 9 68 21 68 57 0 39 -16 45 -34 12 -18 -34
-19 -21 -2 27 7 19 19 35 27 35 8 0 15 4 17 10 3 10 -72 18 -82 8z"/>
<path d="M2841 5954 c0 -11 3 -14 6 -6 3 7 2 16 -1 19 -3 4 -6 -2 -5 -13z"/>
<path d="M2665 5949 c-8 -12 -9 -11 28 -27 18 -8 27 -19 27 -34 0 -40 -12 -68
-27 -68 -12 0 -14 7 -10 30 7 31 -7 50 -17 24 -4 -9 -13 -14 -21 -10 -8 3 -15
1 -15 -5 0 -5 7 -12 15 -15 22 -9 18 -24 -5 -24 -11 0 -20 -7 -20 -15 0 -18
42 -20 72 -4 12 7 39 13 60 15 22 1 46 8 53 14 8 7 48 14 87 15 85 3 128 17
129 42 0 10 2 30 3 45 2 29 -5 28 -43 -6 -17 -15 -25 -17 -28 -8 -7 18 -38 15
-57 -7 -17 -19 -18 -19 -39 2 l-21 21 -14 -23 -15 -22 -23 22 c-23 22 -24 22
-24 2 0 -34 -12 -34 -37 -1 -28 39 -49 52 -58 37z"/>
<path d="M3076 5932 c-9 -27 8 -52 35 -52 26 0 32 17 9 23 -11 3 -24 16 -29
28 l-8 24 -7 -23z"/>
<path d="M8713 6123 c9 -9 20 -13 24 -9 4 4 1 11 -7 16 -25 16 -35 11 -17 -7z"/>
<path d="M9150 6106 c0 -8 5 -18 10 -21 6 -3 10 -14 10 -24 0 -14 10 -21 36
-26 30 -5 40 -2 56 15 17 18 27 21 63 15 24 -3 46 -2 49 3 8 13 -10 18 -73 21
-30 1 -72 9 -95 16 -51 18 -56 18 -56 1z"/>
<path d="M9400 6071 c-6 -13 -7 -22 0 -26 12 -8 61 25 54 36 -10 16 -43 9 -54
-10z"/>
<path d="M9585 6080 c-3 -5 -17 -10 -30 -10 -32 0 -38 -14 -16 -34 16 -15 22
-15 40 -4 12 7 21 23 21 35 0 25 -5 29 -15 13z"/>
<path d="M9255 5778 c-14 -21 -14 -24 1 -35 34 -25 60 12 30 43 -13 12 -17 11
-31 -8z"/>
<path d="M9539 5726 c-20 -6 -48 -25 -62 -42 -23 -27 -32 -31 -64 -27 -21 2
-50 8 -65 14 -22 9 -33 8 -53 -5 -30 -20 -63 -21 -84 -2 -9 8 -32 15 -51 16
-68 4 -70 3 -68 -32 3 -28 0 -32 -17 -30 -11 2 -29 14 -41 27 -12 13 -39 28
-60 34 -55 14 -325 25 -333 14 -3 -5 -27 -17 -54 -27 -26 -10 -52 -27 -58 -39
-7 -11 -20 -30 -30 -41 -11 -11 -19 -23 -19 -28 0 -19 -86 -7 -122 17 -34 23
-36 28 -31 60 3 20 2 35 -3 34 -5 -1 -17 1 -26 5 -12 5 -28 -4 -56 -32 -51
-51 -71 -61 -104 -55 -22 4 -28 1 -33 -18 -3 -13 1 -44 10 -68 8 -24 15 -54
15 -67 0 -13 11 -54 25 -91 34 -92 61 -172 69 -205 3 -15 15 -35 25 -45 11
-10 23 -30 26 -46 4 -15 15 -32 25 -37 24 -13 80 -13 80 0 0 6 12 10 26 10 22
0 24 -2 14 -14 -6 -8 -18 -12 -26 -9 -22 8 -16 -14 8 -31 24 -17 78 -22 78 -7
0 18 61 23 130 10 39 -7 73 -9 77 -5 4 4 7 21 8 38 0 38 60 91 103 91 45 0 82
-12 82 -28 0 -8 5 -15 10 -15 14 0 13 -33 -2 -48 -7 -7 -21 -12 -32 -12 -27
-1 -56 -23 -56 -44 0 -19 37 -22 74 -4 47 21 140 -37 148 -92 2 -20 8 -24 28
-22 14 2 33 14 43 28 24 31 74 32 111 3 23 -18 31 -19 58 -10 17 6 60 11 95
11 62 0 64 -1 74 -30 6 -16 17 -30 24 -30 18 0 32 -20 39 -57 6 -28 2 -37 -38
-79 -25 -26 -48 -56 -52 -66 -8 -26 -26 -22 -57 10 -23 24 -26 32 -18 60 5 18
9 32 8 33 -1 0 -9 2 -17 4 -45 10 -71 28 -89 64 -20 38 -21 39 -54 27 -63 -21
-69 -32 -36 -67 49 -52 38 -80 -49 -129 -38 -22 -46 -23 -92 -12 -42 10 -55 9
-84 -5 -32 -15 -37 -15 -69 1 -19 9 -48 16 -64 16 -17 0 -37 8 -45 18 -13 14
-14 24 -3 65 17 68 6 75 -93 61 -38 -5 -46 -11 -58 -41 -15 -35 -11 -96 9
-120 5 -7 6 -13 1 -13 -5 0 -3 -4 4 -9 10 -6 10 -10 -1 -20 -12 -9 -18 -8 -30
4 -9 8 -27 15 -42 15 -14 0 -36 6 -48 14 -12 7 -44 19 -72 26 -27 6 -58 19
-68 27 -9 9 -42 18 -72 21 -48 4 -59 9 -86 40 -17 19 -34 31 -37 25 -4 -5 -26
-20 -49 -33 -43 -24 -52 -45 -37 -84 8 -21 24 -21 24 0 0 10 7 14 22 12 30 -4
32 -20 7 -49 -17 -20 -20 -32 -15 -69 8 -63 -15 -150 -58 -219 -28 -46 -36
-70 -36 -105 0 -26 -11 -103 -26 -173 -14 -69 -22 -138 -19 -153 6 -26 11 -29
63 -34 90 -9 130 -19 142 -37 9 -13 203 -12 253 0 41 11 56 10 97 -3 37 -12
55 -13 76 -6 35 14 77 5 100 -21 22 -24 29 -24 57 4 30 30 92 29 136 -4 29
-21 42 -23 160 -25 97 -1 135 -6 160 -18 20 -11 68 -19 129 -23 119 -7 102 -7
195 7 l77 12 0 271 0 271 -27 -26 c-65 -60 -84 -36 -53 65 16 52 27 70 50 84
26 15 30 23 30 60 0 31 -4 43 -14 43 -38 0 -52 65 -20 91 17 14 18 29 2 29
-18 0 -61 69 -54 86 3 7 23 25 46 39 l40 25 0 123 c0 75 -4 127 -11 134 -8 8
-8 13 0 17 13 8 16 546 4 546 -5 0 -15 -4 -23 -10 -20 -12 -40 6 -40 37 0 28
25 41 51 24 18 -11 19 -7 19 64 0 82 1 81 -61 61z m-193 -138 c29 -29 30 -42
2 -68 -26 -24 -32 -25 -52 -4 -21 21 -20 64 2 80 22 17 20 18 48 -8z m-542
-20 c53 -55 59 -100 17 -121 -25 -12 -32 -12 -62 3 -33 18 -35 18 -75 -6 -52
-31 -56 -30 -83 7 l-23 31 25 25 c24 25 26 25 58 9 32 -16 34 -16 54 6 12 13
24 31 28 41 7 20 43 23 61 5z m420 -93 c20 -31 20 -49 1 -65 -35 -29 -94 40
-65 75 19 22 46 18 64 -10z m-267 -11 c3 -8 -1 -23 -10 -31 -20 -21 -47 -2
-40 27 6 24 41 27 50 4z m-417 -176 c47 -15 62 -38 24 -38 -13 0 -41 -7 -61
-15 -42 -18 -69 -12 -78 15 -14 44 39 61 115 38z m84 -174 c9 -3 16 -10 16
-15 0 -5 10 -19 22 -31 l22 -22 -30 -8 c-16 -5 -46 -6 -66 -2 -29 4 -38 10
-38 25 0 11 4 18 9 15 5 -3 16 5 25 19 18 28 18 27 40 19z m794 -59 c12 -14
22 -31 22 -39 0 -18 20 -25 53 -19 15 3 27 1 27 -5 0 -18 -28 -33 -61 -33 -19
0 -61 -2 -94 -5 -58 -5 -60 -4 -72 22 -17 36 -16 64 0 64 7 0 20 9 30 20 24
28 68 26 95 -5z m-198 -51 c0 -8 -10 -14 -24 -14 -34 0 -42 18 -14 29 27 10
38 6 38 -15z m195 -470 c29 -29 28 -29 -27 -60 -16 -8 -28 -10 -28 -5 0 8 -30
-18 -120 -105 -42 -40 -59 -42 -89 -10 -33 35 -22 79 22 92 18 5 41 23 55 44
13 19 30 34 38 34 8 -1 14 2 14 7 0 5 12 4 27 -2 33 -12 73 -4 73 16 0 21 5
19 35 -11z m-833 -36 c-10 -10 -15 -10 -22 2 -6 9 -5 17 3 22 18 11 33 -10 19
-24z m-184 -20 c-3 -24 -34 -36 -49 -21 -16 16 2 43 28 43 20 0 24 -4 21 -22z
m630 -50 c17 -17 15 -65 -4 -72 -31 -12 -54 -6 -69 18 -13 19 -14 29 -5 45 12
24 58 29 78 9z m-86 -208 c19 0 3 -45 -18 -48 -30 -4 -51 23 -34 43 7 9 20 13
27 10 8 -3 19 -5 25 -5z m505 -47 c9 -12 9 -20 0 -34 -15 -24 -38 -24 -66 -1
-20 16 -20 19 -6 39 16 23 51 22 72 -4z"/>
<path d="M5505 5700 c-27 -30 -12 -34 15 -5 13 14 19 25 13 25 -5 0 -18 -9
-28 -20z"/>
<path d="M8113 5713 c-8 -3 -13 -22 -13 -46 1 -33 3 -38 11 -25 5 9 16 15 23
12 18 -7 25 15 15 44 -8 22 -14 25 -36 15z"/>
<path d="M8360 5685 c0 -8 5 -15 10 -15 6 0 10 7 10 15 0 8 -4 15 -10 15 -5 0
-10 -7 -10 -15z"/>
<path d="M0 5615 c0 -19 5 -26 17 -23 25 5 27 25 4 38 -19 10 -21 8 -21 -15z"/>
<path d="M145 5607 c-20 -15 -20 -16 5 -25 45 -17 90 -24 90 -14 0 5 10 12 22
16 35 9 9 26 -48 32 -35 4 -55 1 -69 -9z"/>
<path d="M119 5264 c-10 -12 -23 -14 -50 -10 -76 12 -69 138 -69 -1278 l0
-1272 37 -18 c21 -10 79 -22 130 -27 77 -7 106 -15 169 -46 49 -24 79 -46 85
-60 7 -20 16 -23 61 -23 l53 0 -25 20 c-14 11 -33 20 -42 20 -27 0 -22 25 10
46 44 30 55 32 91 18 65 -27 101 -15 101 33 0 15 -106 191 -174 288 -19 28
-47 75 -63 105 -15 30 -46 87 -69 125 -101 173 -155 292 -165 361 -6 38 -26
134 -46 214 -48 195 -62 274 -62 346 -1 78 15 167 39 207 10 18 52 120 95 227
42 107 82 209 90 225 46 105 105 266 105 288 0 14 4 28 9 31 15 9 51 94 51
120 0 21 -8 25 -67 40 -87 21 -105 20 -134 -3 -32 -25 -77 -17 -91 15 -13 28
-49 32 -69 8z"/>
<path d="M6781 5132 c-59 -29 -140 -96 -129 -107 4 -4 19 5 35 20 15 14 42 33
58 42 17 9 44 26 60 37 17 12 32 22 34 23 2 2 2 5 0 7 -2 2 -28 -8 -58 -22z"/>
<path d="M6797 5093 c-19 -19 5 -103 30 -103 17 0 16 18 -3 55 -10 19 -11 31
-5 33 6 2 11 8 11 13 0 10 -23 12 -33 2z"/>
<path d="M6731 5047 c-14 -17 -12 -28 14 -63 14 -19 14 -23 1 -33 -12 -10 -19
-8 -37 13 -13 14 -26 26 -31 26 -15 0 -8 -23 13 -47 18 -18 20 -25 9 -38 -11
-13 -16 -12 -41 6 -38 27 -37 9 2 -30 17 -17 29 -37 26 -44 -2 -7 -8 -3 -16
11 -17 32 -48 29 -49 -5 0 -34 15 -54 34 -46 9 3 14 -2 14 -16 0 -12 -4 -21
-10 -21 -5 0 -10 5 -10 10 0 6 -4 10 -10 10 -5 0 -10 -6 -10 -14 0 -8 -8 -17
-17 -20 -12 -5 -14 -9 -5 -18 9 -9 15 -9 24 0 8 8 15 9 25 1 10 -9 15 -5 23
16 5 14 10 32 10 40 0 26 62 130 91 153 35 28 38 52 6 52 -19 0 -25 8 -33 37
-8 33 -10 35 -23 20z"/>
<path d="M6827 4936 c5 -38 3 -44 -13 -43 -10 1 -20 -6 -22 -16 -3 -16 -1 -17
18 -7 20 11 21 9 18 -17 -3 -24 -7 -28 -32 -25 -20 3 -27 0 -24 -10 3 -7 15
-13 27 -12 24 1 26 -12 9 -67 -9 -33 -15 -39 -39 -39 -15 0 -30 -4 -33 -9 -9
-13 3 -39 20 -43 9 -2 11 -8 4 -17 -7 -12 -12 -12 -23 -3 -12 10 -19 5 -41
-28 -31 -47 -32 -52 -7 -67 18 -11 25 -7 65 41 60 69 97 166 103 271 5 77 -6
135 -26 135 -4 0 -6 -20 -4 -44z m-100 -342 c-3 -3 -12 -4 -19 -1 -8 3 -5 6 6
6 11 1 17 -2 13 -5z"/>
<path d="M8702 4841 c-10 -6 -10 -10 3 -21 13 -11 15 -9 15 9 0 24 0 24 -18
12z"/>
<path d="M6648 4683 c-3 -24 -7 -28 -30 -25 -20 2 -28 -1 -28 -11 0 -9 -3 -22
-6 -31 -4 -12 0 -16 16 -16 30 0 24 -44 -7 -48 -13 -2 -23 -8 -23 -13 0 -14
19 -11 50 7 25 15 28 24 33 87 6 68 2 109 -5 50z"/>
<path d="M6646 4537 c3 -10 9 -15 12 -12 3 3 0 11 -7 18 -10 9 -11 8 -5 -6z"/>
<path d="M1985 4474 c-74 -68 -167 -122 -251 -147 -52 -15 -60 -11 -41 21 5 6
5 12 1 12 -4 0 0 8 8 18 16 19 24 92 10 92 -11 0 -24 -58 -16 -71 3 -5 0 -9
-5 -9 -6 0 -11 -6 -11 -13 0 -8 -18 -42 -41 -77 -44 -68 -42 -80 14 -80 16 0
36 -10 49 -25 21 -24 62 -34 72 -16 6 9 54 3 61 -9 2 -4 -21 -10 -52 -13 -69
-7 -79 -16 -67 -58 8 -27 17 -35 63 -50 76 -26 91 -47 126 -173 9 -33 20 -55
25 -50 11 11 32 153 45 297 2 26 6 51 9 55 4 7 17 76 20 114 1 10 5 21 9 24 4
4 7 17 7 28 0 12 9 29 19 38 23 19 37 96 25 132 -9 24 -10 24 -79 -40z m-42
-318 c25 -19 21 -24 -23 -24 -45 -1 -46 0 -24 22 19 19 24 19 47 2z"/>
<path d="M6578 4483 c-10 -2 -22 -21 -28 -43 -9 -33 -7 -46 15 -96 14 -31 25
-67 25 -80 0 -26 14 -32 26 -12 4 6 2 14 -4 16 -7 2 -10 8 -7 13 3 4 8 25 11
46 2 20 11 47 19 60 17 25 20 69 5 78 -5 3 -14 -12 -20 -34 -5 -21 -17 -44
-25 -51 -12 -10 -16 -8 -25 14 -11 31 -4 55 24 78 21 17 17 20 -16 11z"/>
<path d="M1680 4132 c0 -7 -7 -9 -17 -5 -15 5 -16 3 -5 -8 9 -10 15 -10 24 -1
6 6 9 15 5 19 -4 3 -7 1 -7 -5z"/>
<path d="M8127 3734 c-9 -10 2 -24 19 -24 8 0 14 7 14 15 0 15 -21 21 -33 9z"/>
<path d="M6762 3599 c-38 -68 -82 -190 -82 -226 0 -38 33 -28 68 22 18 25 32
49 32 54 0 5 6 11 14 14 11 4 12 15 4 54 -5 26 -6 69 -2 96 3 26 4 47 2 47 -1
0 -18 -28 -36 -61z"/>
<path d="M9476 3633 c-3 -3 -6 -17 -6 -30 0 -30 22 -26 26 5 4 21 -8 37 -20
25z"/>
<path d="M7975 3622 c-11 -2 -24 -8 -29 -13 -6 -5 -25 -9 -43 -9 -36 0 -50
-17 -39 -47 5 -12 9 -14 14 -6 4 7 20 17 35 22 53 20 76 13 123 -36 41 -43 45
-50 39 -83 -12 -66 -27 -87 -92 -124 -52 -30 -61 -40 -54 -54 51 -100 48 -111
-44 -197 -41 -38 -81 -76 -90 -83 -8 -6 -19 -31 -25 -55 -6 -23 -22 -77 -36
-119 -13 -43 -24 -90 -24 -105 0 -16 -16 -55 -35 -88 -36 -61 -72 -134 -85
-170 -21 -56 -79 -166 -112 -212 -65 -90 -73 -143 -21 -143 13 0 36 -9 50 -20
30 -24 66 -26 83 -5 11 13 15 13 33 0 12 -8 29 -15 39 -15 10 0 18 -4 18 -9 0
-5 24 -11 53 -15 28 -3 73 -9 98 -12 42 -5 50 -2 82 25 27 24 36 41 39 71 2
22 1 40 -3 40 -11 0 3 50 15 52 6 0 31 1 56 2 39 1 45 4 48 24 6 42 92 22 92
-22 0 -18 -37 -46 -61 -46 -24 0 -31 -48 -9 -70 9 -9 36 -20 60 -24 38 -6 47
-4 69 18 25 24 46 31 84 28 12 -2 17 -11 17 -31 0 -40 36 -51 180 -58 l115 -5
14 26 c8 14 19 26 24 26 5 0 18 11 29 25 29 37 89 35 117 -3 11 -16 22 -39 26
-53 6 -23 55 -57 55 -38 0 5 13 9 29 9 17 0 42 10 56 23 23 19 25 26 16 48
-14 38 -4 65 31 82 45 22 77 8 113 -47 l19 -29 8 31 c9 34 41 50 62 33 8 -6
16 -29 20 -51 7 -44 25 -51 63 -25 29 20 60 3 71 -40 6 -22 19 -35 48 -49 21
-10 52 -30 69 -43 17 -15 31 -21 33 -14 2 6 21 14 43 17 l39 7 0 438 c0 355
-3 439 -13 439 -7 0 -21 6 -31 13 -15 11 -16 17 -7 35 6 11 20 24 31 27 11 3
20 15 20 26 0 21 -20 25 -37 8 -7 -7 -17 -8 -25 -3 -7 5 -17 9 -23 9 -30 0 -6
83 36 121 27 24 49 67 49 94 0 20 -1 20 -22 6 -25 -18 -79 -21 -94 -6 -11 11
-44 3 -44 -10 0 -5 -20 -20 -45 -34 -24 -15 -50 -34 -57 -44 -26 -35 -44 -43
-72 -32 -40 15 -35 57 12 102 20 20 47 39 60 43 12 3 22 13 22 21 0 8 5 14 10
14 6 0 10 7 10 15 0 22 -18 18 -25 -5 -5 -16 -15 -20 -50 -20 -35 0 -46 5 -60
27 -16 23 -17 33 -6 71 14 52 10 59 -24 44 -14 -7 -40 -12 -58 -12 -45 0 -75
-24 -83 -67 -4 -20 -13 -48 -20 -62 -13 -24 -12 -26 9 -29 49 -6 77 -24 77
-48 0 -29 -27 -38 -96 -30 -27 2 -56 5 -64 5 -38 3 -41 18 -10 51 25 27 31 40
26 63 -4 22 0 34 19 53 19 19 25 34 23 61 -2 38 19 63 56 63 26 0 37 8 59 43
11 17 26 27 42 27 13 0 36 11 51 24 l28 23 -28 18 c-23 15 -31 16 -54 5 -45
-21 -84 -30 -96 -22 -29 19 -85 31 -117 26 -24 -4 -47 0 -68 10 -26 14 -35 14
-54 4 -12 -7 -53 -13 -92 -15 -106 -4 -107 -4 -100 -28 18 -55 17 -66 -5 -90
-12 -13 -35 -27 -51 -30 -15 -4 -31 -15 -34 -26 -4 -10 -13 -19 -22 -19 -10 0
-13 6 -9 16 4 12 2 15 -9 10 -9 -3 -19 3 -25 14 -6 11 -17 20 -24 20 -7 0 -25
9 -39 20 -36 29 -49 25 -93 -25 -21 -25 -47 -45 -56 -45 -11 0 -18 -8 -18 -19
0 -25 -38 -66 -68 -74 -28 -7 -66 26 -76 65 -6 28 10 45 90 94 16 10 17 15 7
33 -7 11 -13 28 -13 36 0 8 -7 15 -15 15 -8 0 -15 -8 -15 -18 0 -10 -9 -25
-20 -34 -18 -16 -21 -16 -48 7 -18 15 -34 42 -40 68 -16 61 -54 90 -107 79z
m893 -136 c105 -77 137 -168 78 -219 -11 -10 -33 -29 -48 -43 -15 -13 -34 -24
-42 -24 -22 0 -76 -34 -73 -45 2 -5 17 -9 34 -7 40 4 46 -8 33 -58 -9 -32 -15
-40 -34 -40 -13 0 -31 9 -41 20 -10 11 -26 20 -35 20 -10 0 -23 7 -31 16 -19
23 -97 10 -126 -22 -28 -30 -37 -26 -116 49 -31 30 -59 52 -62 47 -3 -4 -18
-13 -35 -18 -28 -10 -31 -9 -45 19 -14 26 -14 32 0 59 19 37 19 49 -1 71 -16
17 -15 19 12 30 81 32 143 -9 99 -67 -19 -25 -20 -74 -1 -74 25 0 81 28 82 42
0 7 2 21 2 31 2 24 57 20 57 -4 0 -19 63 -75 72 -65 6 6 -8 75 -21 108 -5 12
0 22 19 34 22 14 32 15 66 5 22 -7 44 -9 49 -6 6 3 9 34 9 67 -2 53 1 63 22
79 31 24 39 24 77 -5z m-787 -317 c26 -26 12 -46 -33 -45 -25 1 -33 6 -39 28
-4 15 -4 29 -1 32 12 13 53 5 73 -15z m334 -109 c16 -16 34 -30 40 -30 7 0 20
-9 30 -20 17 -19 17 -21 1 -39 -10 -11 -31 -23 -47 -26 -21 -5 -31 -14 -35
-33 -10 -48 -13 -52 -38 -52 -30 0 -54 32 -59 77 -2 18 -10 39 -17 48 -17 21
2 58 44 85 41 26 47 25 81 -10z m880 -159 c-3 -5 -1 -12 5 -16 15 -9 12 -25
-5 -25 -21 0 -31 30 -14 41 18 11 22 11 14 0z m-458 -72 c1 -19 4 -45 5 -58 2
-19 -3 -26 -25 -32 -34 -9 -77 5 -77 24 0 8 9 22 20 32 11 10 20 26 20 36 0
19 28 41 45 35 6 -1 11 -18 12 -37z m-407 -34 c0 -46 -52 -65 -63 -23 -7 27 1
41 19 34 8 -3 14 -1 14 4 0 5 7 7 15 4 8 -4 15 -12 15 -19z m1081 -55 c15 -9
17 -15 9 -30 -12 -22 -40 -26 -58 -8 -7 7 -8 17 -1 30 11 21 22 22 50 8z
m-1146 -120 c12 -37 -15 -51 -57 -29 -19 10 -19 11 -1 29 24 25 50 25 58 0z
m-204 -151 c3 -15 3 -33 -2 -40 -6 -10 -9 -4 -9 19 0 26 -4 32 -21 32 -11 0
-17 4 -14 11 12 18 38 5 46 -22z m-351 -30 c0 -11 -12 -11 -35 -3 -12 5 -14 9
-4 14 14 9 39 2 39 -11z m1076 -5 c-4 -9 -9 -15 -11 -12 -3 3 -3 13 1 22 4 9
9 15 11 12 3 -3 3 -13 -1 -22z m-685 -21 c12 -32 -3 -55 -23 -35 -10 10 -10
15 1 21 9 6 10 11 2 15 -14 9 -14 26 -1 26 6 0 15 -12 21 -27z m649 -2 c0 -30
-18 -45 -40 -31 -20 12 -4 60 20 60 15 0 20 -7 20 -29z m423 1 c-2 -6 4 -12
12 -12 8 0 15 -7 15 -16 0 -21 -25 -44 -48 -44 -17 0 -82 27 -82 34 0 8 37 44
50 49 24 9 55 3 53 -11z m227 -78 c0 -8 -7 -14 -15 -14 -15 0 -21 21 -9 33 10
9 24 -2 24 -19z m-890 1 c11 -13 8 -15 -20 -15 -28 0 -31 2 -20 15 7 8 16 15
20 15 4 0 13 -7 20 -15z m729 -7 c10 -6 17 -18 16 -27 -1 -9 0 -10 2 -3 3 7
12 12 21 10 20 -4 25 -68 8 -104 -22 -47 -116 -31 -101 17 3 10 0 21 -7 26
-15 9 -38 48 -38 63 0 5 16 10 35 10 19 0 35 5 35 10 0 13 6 13 29 -2z m-679
-2 c0 -2 -7 -7 -16 -10 -8 -3 -12 -2 -9 4 6 10 25 14 25 6z m-320 -26 c0 -24
-22 -35 -47 -25 -16 6 -16 8 6 26 30 24 41 24 41 -1z m61 10 c17 -10 18 -13 5
-25 -27 -28 -61 -12 -48 23 5 15 17 15 43 2z m444 -49 c9 -15 -35 -81 -56 -83
-10 -1 -27 -2 -36 -2 -9 -1 -24 12 -33 29 l-16 30 45 15 c54 19 88 23 96 11z
m-425 -32 c0 -5 14 -15 31 -21 23 -8 29 -15 26 -29 -3 -12 3 -25 15 -33 13 -9
18 -21 15 -30 -9 -23 -35 -19 -43 7 -3 12 -14 30 -23 39 -42 44 -55 78 -31 78
6 0 10 -5 10 -11z m537 -101 c-3 -7 -5 -2 -5 12 0 14 2 19 5 13 2 -7 2 -19 0
-25z"/>
<path d="M8391 3582 c-13 -13 -12 -17 8 -33 13 -11 34 -19 46 -19 13 0 30 -3
38 -6 9 -3 28 7 45 24 l31 30 -27 11 c-40 15 -124 11 -141 -7z"/>
<path d="M8205 3577 c-4 -10 -5 -21 -1 -24 10 -10 18 4 13 24 -4 17 -4 17 -12
0z"/>
<path d="M8600 3570 c0 -5 7 -10 16 -10 8 0 12 5 9 10 -3 6 -10 10 -16 10 -5
0 -9 -4 -9 -10z"/>
<path d="M2025 3550 c3 -5 11 -10 16 -10 6 0 7 5 4 10 -3 6 -11 10 -16 10 -6
0 -7 -4 -4 -10z"/>
<path d="M9448 3531 c-16 -9 -28 -23 -28 -31 0 -9 -6 -22 -12 -29 -11 -12 -9
-13 7 -6 11 4 37 7 58 6 41 -2 45 6 20 47 -17 27 -19 28 -45 13z"/>
<path d="M2065 3520 c3 -5 8 -10 11 -10 2 0 4 5 4 10 0 6 -5 10 -11 10 -5 0
-7 -4 -4 -10z"/>
<path d="M2108 3513 c6 -2 18 -2 25 0 6 3 1 5 -13 5 -14 0 -19 -2 -12 -5z"/>
<path d="M7798 3479 c-10 -5 -18 -19 -18 -30 0 -23 36 -79 51 -79 13 0 10 60
-4 92 -10 22 -15 25 -29 17z"/>
<path d="M9520 3465 c0 -19 23 -35 52 -35 21 0 28 5 28 19 0 15 -9 20 -40 23
-24 2 -40 -1 -40 -7z"/>
<path d="M9377 3403 c-4 -3 -7 -14 -7 -24 0 -9 -5 -19 -11 -21 -6 -2 -8 -14
-4 -31 8 -31 21 -35 28 -9 3 10 5 6 6 -10 1 -30 12 -36 29 -15 6 7 7 28 3 53
-11 58 -25 76 -44 57z"/>
<path d="M2298 3343 c7 -3 16 -2 19 1 4 3 -2 6 -13 5 -11 0 -14 -3 -6 -6z"/>
<path d="M7840 3330 c0 -9 31 -30 45 -30 3 0 1 9 -5 20 -11 20 -40 28 -40 10z"/>
<path d="M9506 3299 c-19 -19 -19 -19 11 -19 18 0 41 -10 57 -25 l26 -24 0 38
c0 32 -4 40 -22 45 -36 9 -52 6 -72 -15z"/>
<path d="M9437 3213 c-4 -3 -7 -11 -7 -17 0 -6 5 -5 12 2 6 6 9 14 7 17 -3 3
-9 2 -12 -2z"/>
<path d="M2550 3114 c0 -8 4 -14 9 -14 5 0 12 -19 16 -42 4 -24 13 -59 20 -78
7 -19 21 -61 31 -92 17 -57 32 -70 52 -45 12 14 11 28 -5 67 -9 21 -7 26 8 32
17 6 15 13 -22 75 -22 37 -44 67 -50 65 -6 -1 -13 6 -16 17 -6 23 -43 36 -43
15z"/>
<path d="M6565 2917 c-29 -18 -44 -37 -66 -86 -21 -47 -19 -62 6 -41 12 10 15
10 15 -4 0 -21 6 -20 37 4 41 32 159 28 245 -9 90 -38 187 -104 297 -201 50
-45 91 -76 91 -70 0 6 -11 28 -25 50 -14 22 -25 43 -25 46 0 17 -119 139 -174
178 -78 55 -130 81 -233 117 -88 31 -136 35 -168 16z"/>
<path d="M6367 2593 c-20 -49 -7 -61 36 -34 39 24 122 29 175 10 51 -17 61 -4
15 20 -31 15 -64 22 -118 24 -41 1 -75 5 -75 10 0 20 -20 3 -33 -30z"/>
<path d="M263 2437 c-12 -6 -23 -21 -25 -32 -5 -32 -42 -30 -77 4 l-32 31 -32
-22 c-64 -45 -81 -80 -58 -117 7 -12 13 -12 24 -3 7 7 17 9 21 5 3 -4 12 8 18
25 17 44 57 44 97 0 26 -29 32 -32 57 -23 23 8 30 17 32 45 2 19 10 40 18 47
10 7 13 19 9 32 -7 23 -18 24 -52 8z"/>
<path d="M577 2443 c-4 -3 -10 -28 -13 -54 -4 -27 -13 -54 -20 -60 -23 -19
-44 -3 -44 36 0 30 -3 35 -23 35 -25 0 -53 -38 -45 -61 6 -17 -60 -74 -94 -83
-33 -8 -36 -31 -7 -46 17 -10 21 -8 26 8 3 11 15 23 26 26 28 7 97 -4 97 -15
0 -5 -4 -9 -8 -9 -4 0 -13 -13 -19 -30 -10 -26 -9 -30 5 -30 24 0 75 57 68 75
-3 8 0 15 5 15 15 0 107 97 114 120 13 41 -42 100 -68 73z"/>
<path d="M6820 2436 c0 -2 8 -10 18 -17 15 -13 16 -12 3 4 -13 16 -21 21 -21
13z"/>
<path d="M6867 2393 c-13 -12 -7 -21 28 -43 19 -12 35 -30 35 -39 0 -23 42
-69 57 -64 19 7 1 -223 -21 -278 -8 -17 35 -42 57 -33 8 3 20 -2 27 -11 20
-24 38 -18 65 26 39 60 43 74 18 58 -11 -7 -27 -9 -36 -6 -19 7 -51 72 -42 86
10 17 23 13 30 -9 16 -50 92 3 79 55 -8 31 -24 43 -24 17 0 -27 -10 -33 -32
-21 -14 8 -18 17 -14 33 5 19 -11 39 -92 117 -114 111 -127 121 -135 112z"/>
<path d="M7237 2346 c-18 -39 -15 -46 25 -46 31 0 33 4 17 49 -14 40 -21 39
-42 -3z"/>
<path d="M737 2320 c-15 -12 -27 -27 -27 -33 0 -8 4 -7 12 1 30 30 78 -11 62
-52 -3 -9 6 -17 25 -24 26 -9 31 -16 31 -41 0 -24 4 -31 19 -31 11 0 29 -11
40 -25 16 -22 18 -31 9 -55 -16 -47 -49 -40 -121 25 -33 30 -66 55 -72 55 -7
0 -19 9 -26 20 -11 15 -28 20 -69 22 -49 3 -55 1 -58 -18 -2 -17 4 -23 27 -27
22 -5 31 -12 31 -25 0 -11 11 -36 25 -57 26 -37 26 -71 1 -87 -6 -4 7 -8 30
-8 36 0 42 3 57 35 15 32 19 34 41 24 47 -22 42 -89 -8 -113 -50 -24 -86 -64
-98 -111 -9 -32 -16 -42 -27 -37 -31 10 -52 36 -47 57 8 30 -7 50 -24 30 -17
-21 -30 -19 -61 11 -22 21 -30 24 -47 15 -53 -28 -63 -8 -64 127 0 63 -4 92
-12 92 -21 0 -55 -30 -71 -63 -8 -18 -27 -40 -43 -50 -46 -29 -96 -66 -125
-92 -15 -14 -35 -26 -45 -26 -66 -5 -82 -12 -82 -35 0 -8 -4 -14 -10 -14 -5 0
-10 -14 -10 -31 0 -27 2 -30 15 -19 12 10 20 9 39 -3 40 -26 57 -48 51 -66 -9
-28 18 -52 65 -58 59 -7 81 -19 73 -39 -5 -14 -19 -15 -94 -10 -48 3 -101 3
-118 0 -31 -6 -31 -7 -31 -69 0 -47 4 -64 15 -69 9 -3 15 -18 15 -36 0 -20 4
-29 11 -25 6 4 27 7 47 7 20 0 56 6 80 14 23 8 60 14 82 14 21 0 42 5 45 10 9
15 71 12 84 -3 19 -24 -10 -51 -47 -44 -24 5 -37 1 -63 -21 -17 -15 -46 -39
-64 -54 -23 -20 -44 -28 -69 -28 -20 0 -48 -7 -61 -16 -38 -25 -59 -3 -50 53
5 35 3 43 -9 43 -13 0 -16 -15 -16 -86 l0 -87 44 6 c38 6 43 4 39 -11 -2 -9
-22 -25 -44 -34 l-39 -17 0 -73 c0 -73 0 -74 30 -85 39 -15 38 -35 -2 -67 -18
-14 -27 -26 -20 -26 6 0 12 -11 12 -25 0 -14 -4 -25 -10 -25 -6 0 -10 -27 -10
-60 0 -58 1 -60 21 -50 27 15 29 12 19 -35 -5 -21 -7 -43 -4 -47 3 -4 -4 -8
-15 -8 -20 0 -21 -5 -19 -95 l1 -95 31 -4 c31 -4 49 -5 133 -9 24 -1 48 4 55
12 11 10 7 17 -19 38 -29 22 -31 27 -21 54 13 38 35 49 97 49 27 0 53 5 56 10
8 13 16 12 38 -4 10 -8 15 -20 11 -29 -7 -19 -58 -47 -85 -47 -23 0 -35 -20
-19 -30 7 -4 9 -16 5 -29 -11 -35 41 -50 174 -48 69 0 115 -3 119 -10 4 -5 21
-17 38 -26 27 -14 36 -14 72 -2 31 11 48 12 72 4 21 -8 43 -8 70 -1 30 7 46 6
66 -4 14 -8 32 -14 39 -14 7 0 29 -12 51 -26 33 -23 42 -25 73 -16 20 6 66 10
103 11 59 0 68 -2 73 -20 9 -28 41 -20 37 9 -3 22 -1 23 35 16 43 -8 63 -20
63 -40 0 -19 24 -18 40 1 17 20 20 19 70 -14 37 -25 47 -27 75 -18 29 9 37 6
69 -19 68 -55 43 -72 -112 -75 l-112 -3 -34 33 c-34 33 -34 33 -60 15 -31 -23
-32 -29 -6 -56 15 -16 19 -34 18 -69 -3 -65 11 -79 82 -79 37 0 60 5 63 13 4
10 6 10 6 0 1 -10 39 -13 154 -13 l154 0 13 54 c7 31 10 72 6 96 -4 27 -1 57
10 88 16 46 17 82 13 307 -2 86 7 117 56 199 39 66 48 140 29 236 -14 71 -18
78 -74 130 -32 30 -75 84 -96 120 -97 166 -169 264 -187 253 -6 -4 -8 4 -5 20
3 18 -3 39 -21 65 -37 56 -88 112 -102 112 -7 0 -9 3 -6 6 5 6 -43 77 -64 94
-3 3 -23 34 -43 70 -49 84 -131 169 -157 163 -15 -4 -19 0 -19 19 0 31 -26 68
-49 68 -29 0 -54 35 -47 66 6 21 1 33 -20 55 -26 27 -56 39 -52 22 3 -14 -24
-62 -38 -67 -29 -11 -34 20 -10 67 33 65 27 82 -32 85 -26 1 -63 4 -82 7 -28
5 -42 1 -63 -15z m248 -317 c67 -12 73 -49 17 -103 l-39 -36 24 -34 c34 -51
32 -108 -7 -145 -42 -41 -65 -26 -65 41 0 37 -4 49 -17 52 -21 4 -51 67 -43
92 4 13 15 20 30 20 13 0 27 6 32 13 9 15 5 58 -8 73 -16 20 1 46 25 39 11 -4
35 -9 51 -12z m173 -115 c7 -7 12 -24 12 -40 0 -17 7 -31 19 -37 25 -14 43
-65 28 -80 -16 -16 -44 -14 -51 4 -3 8 -3 29 0 45 6 25 3 31 -19 39 -29 11
-51 46 -43 67 7 17 38 18 54 2z m-900 -82 c6 -65 -4 -86 -39 -86 l-31 0 6 48
c11 74 15 83 39 80 18 -2 23 -11 25 -42z m106 -37 c-7 -12 -31 -11 -39 1 -4 6
-1 18 6 26 12 14 14 14 26 -2 7 -9 10 -21 7 -25z m373 -67 c-6 -29 38 -112 59
-112 8 0 28 -7 45 -15 24 -13 44 -14 122 -6 50 6 107 13 125 17 57 11 99 -51
51 -77 -16 -8 -37 -8 -83 1 -65 12 -99 15 -329 25 -82 3 -159 10 -173 15 -17
7 -32 6 -45 -1 -30 -16 -59 -2 -59 28 0 25 -1 26 -57 20 -32 -3 -52 -2 -44 2
7 5 14 25 16 45 5 50 21 67 54 60 47 -11 73 -33 67 -58 -12 -50 113 -53 130
-3 11 30 11 33 13 61 1 21 8 26 44 34 50 10 71 -1 64 -36z m-176 -15 c-8 -8
-11 -7 -11 4 0 20 13 34 18 19 3 -7 -1 -17 -7 -23z m719 -177 c0 -5 -5 -10
-11 -10 -5 0 -7 5 -4 10 3 6 8 10 11 10 2 0 4 -4 4 -10z m-784 -84 c15 -12 16
-17 7 -27 -10 -10 -17 -9 -33 6 -36 33 -14 50 26 21z m185 -32 c33 -6 35 -8
31 -36 -5 -30 -6 -30 -49 -24 -55 7 -63 12 -63 36 0 27 21 34 81 24z m242 -56
c-2 -5 -21 -8 -41 -8 l-37 0 33 16 c17 9 32 22 33 28 0 6 4 2 8 -9 5 -11 7
-23 4 -27z m-410 -42 c17 -13 23 -37 11 -49 -7 -6 -74 32 -74 42 0 24 36 27
63 7z m-151 -13 c10 -12 14 -29 11 -49 -4 -24 -13 -34 -39 -44 -27 -11 -35
-20 -40 -49 -6 -42 -35 -101 -47 -101 -5 0 -21 -13 -36 -29 -15 -16 -34 -30
-42 -31 -33 -5 -57 1 -63 16 -10 27 12 52 54 59 l40 7 0 70 c0 61 -2 71 -20
75 -11 3 -20 12 -20 19 0 16 16 19 25 4 11 -18 36 -11 63 18 50 53 88 65 114
35z m191 -90 c-7 -2 -19 -2 -25 0 -7 3 -2 5 12 5 14 0 19 -2 13 -5z m314 -44
c7 -7 38 -12 70 -13 32 -1 68 -7 80 -14 27 -15 28 -15 46 3 11 10 25 13 46 9
44 -9 43 -47 -1 -74 -34 -21 -87 -20 -130 1 -10 5 -27 14 -38 19 -11 6 -35 10
-54 10 -42 0 -80 28 -71 53 8 19 35 23 52 6z m416 -16 c8 -7 -22 -32 -40 -33
-6 0 -9 8 -6 20 5 19 33 27 46 13z m-796 -57 c7 -7 -9 -35 -25 -41 -18 -7 -42
18 -42 43 0 11 8 13 32 8 17 -3 33 -8 35 -10z m762 -55 c19 -12 6 -41 -18 -41
-26 0 -36 17 -21 35 14 17 20 18 39 6z m256 -26 c0 -13 -8 -21 -22 -23 -19 -3
-23 1 -23 23 0 22 4 26 23 23 14 -2 22 -10 22 -23z m-897 -27 c17 -17 15 -31
-8 -46 -17 -10 -25 -9 -45 4 -24 16 -25 18 -9 35 20 22 45 24 62 7z m437 -17
c0 -8 -7 -17 -15 -19 -13 -4 -13 -3 -2 11 11 13 10 16 -5 21 -15 4 -15 4 2 3
11 -1 20 -9 20 -16z m-243 -17 c11 -22 10 -28 -7 -40 -18 -14 -18 -14 1 -14
25 -1 46 -19 61 -51 11 -26 11 -27 -25 -27 -20 -1 -56 -4 -79 -7 -35 -6 -44
-4 -50 10 -7 21 6 44 33 59 10 6 21 12 23 14 3 1 -5 13 -18 25 -28 31 -19 57
20 57 22 0 32 -7 41 -26z m-562 -13 c0 -21 -26 -36 -36 -20 -9 15 3 39 21 39
8 0 15 -9 15 -19z m102 -36 c2 -15 -3 -21 -24 -23 -32 -4 -36 12 -11 40 18 20
29 14 35 -17z m823 23 c26 -12 29 -28 7 -36 -7 -2 -12 3 -12 12 0 23 -19 20
-28 -4 -7 -19 -9 -18 -25 10 l-18 30 25 0 c14 0 37 -5 51 -12z m-156 -54 c46
-10 39 -32 -14 -40 -53 -7 -56 -6 -48 24 6 24 13 25 62 16z m-460 -24 c87 -15
95 -20 75 -48 -20 -29 -42 -28 -85 3 -20 15 -42 24 -53 21 -25 -6 -56 10 -56
30 0 12 7 15 28 11 15 -3 56 -10 91 -17z m526 0 c-3 -5 -10 -10 -16 -10 -5 0
-9 5 -9 10 0 6 7 10 16 10 8 0 12 -4 9 -10z m-775 -55 c0 -8 -7 -15 -15 -15
-8 0 -15 7 -15 15 0 8 7 15 15 15 8 0 15 -7 15 -15z m-140 -25 c12 -11 31 -22
42 -26 30 -9 15 -29 -25 -32 -31 -3 -38 1 -52 28 -25 48 -6 65 35 30z m627
-53 c10 6 17 16 16 22 -3 13 16 14 36 2 16 -10 8 -39 -20 -75 -16 -21 -29 -26
-64 -26 -60 0 -75 8 -75 39 1 72 30 95 67 52 19 -22 26 -24 40 -14z m-467 -29
l21 -23 -21 -9 c-22 -10 -60 15 -60 41 0 21 37 15 60 -9z m260 7 c0 -8 -9 -15
-20 -15 -11 0 -20 7 -20 15 0 8 9 15 20 15 11 0 20 -7 20 -15z m-439 -21 c18
-16 17 -17 -5 -35 -39 -30 -83 2 -50 36 20 19 33 19 55 -1z m315 -25 c3 -6 -1
-18 -9 -27 -14 -13 -18 -13 -33 -1 -16 12 -17 12 -11 -4 4 -11 3 -16 -3 -12
-18 11 -11 35 13 45 30 12 35 12 43 -1z m1234 -29 c0 -5 -8 -10 -17 -10 -15 0
-16 2 -3 10 19 12 20 12 20 0z m-1140 -55 c0 -8 -7 -15 -15 -15 -16 0 -20 12
-8 23 11 12 23 8 23 -8z"/>
<path d="M10 2250 c-9 -16 -8 -18 5 -14 8 4 15 12 15 20 0 20 -7 17 -20 -6z"/>
<path d="M3334 2203 c-40 -41 -164 -206 -164 -218 0 -3 7 -5 15 -5 8 0 15 -5
15 -11 0 -5 5 -7 10 -4 15 9 12 25 -5 25 -9 0 -12 6 -9 15 5 13 9 13 22 3 9
-7 13 -8 9 -2 -10 17 25 45 43 34 25 -16 34 -11 16 9 -19 21 -14 41 8 41 8 0
19 7 26 15 7 9 20 13 28 10 8 -3 20 -1 26 3 6 5 23 12 39 16 21 5 27 12 26 34
0 15 -3 21 -6 15 -11 -28 -22 -11 -18 27 3 34 1 40 -16 40 -11 0 -40 -21 -65
-47z"/>
<path d="M7251 2189 c-13 -39 -14 -42 -2 -35 13 8 32 66 21 66 -4 0 -13 -14
-19 -31z"/>
<path d="M87 2148 c-6 -69 -1 -81 44 -97 31 -11 28 -15 44 63 2 10 -1 23 -6
30 -5 6 -18 23 -30 39 -33 43 -46 35 -52 -35z"/>
<path d="M510 2115 c0 -28 8 -31 35 -12 21 16 12 37 -16 37 -14 0 -19 -7 -19
-25z"/>
<path d="M3885 2060 c-3 -5 -26 -10 -51 -10 l-45 0 28 -25 c44 -39 52 -45 58
-45 3 0 13 -8 23 -17 17 -17 17 -19 -6 -39 l-23 -21 30 5 c23 3 31 10 32 26 1
17 2 17 6 4 2 -10 9 -18 14 -18 15 0 10 32 -10 75 -11 22 -22 48 -25 58 -6 19
-21 23 -31 7z"/>
<path d="M8638 2036 c-9 -45 6 -53 53 -29 l42 21 -38 16 c-49 21 -52 20 -57
-8z"/>
<path d="M9030 1999 c-53 -24 -49 -45 8 -41 22 1 43 -2 47 -8 3 -5 32 -10 63
-9 31 0 50 3 42 6 -8 3 -28 18 -45 33 -41 37 -65 41 -115 19z"/>
<path d="M8830 1996 c0 -2 7 -9 15 -16 12 -10 15 -10 15 4 0 9 -7 16 -15 16
-8 0 -15 -2 -15 -4z"/>
<path d="M9273 1985 c-43 -18 -42 -31 3 -38 41 -7 60 -1 68 20 14 34 -17 42
-71 18z"/>
<path d="M9360 1984 c0 -8 5 -12 10 -9 6 3 10 10 10 16 0 5 -4 9 -10 9 -5 0
-10 -7 -10 -16z"/>
<path d="M3853 1943 c9 -9 20 -13 24 -9 4 4 1 11 -7 16 -25 16 -35 11 -17 -7z"/>
<path d="M7570 1940 c-14 -11 -41 -20 -62 -20 -34 0 -38 -3 -38 -24 0 -23 -32
-56 -53 -56 -4 0 -13 14 -18 30 -17 48 -49 34 -49 -21 0 -13 7 -19 24 -19 16
0 26 -7 29 -21 9 -34 -4 -78 -24 -84 -11 -4 -19 -11 -19 -16 0 -5 -3 -8 -7 -7
-19 5 -61 -18 -93 -51 -20 -20 -50 -44 -68 -53 -25 -14 -32 -23 -32 -48 0 -34
-34 -75 -56 -66 -8 3 -20 8 -27 11 -7 3 -20 -8 -30 -25 -18 -30 -50 -45 -84
-38 -12 2 -19 14 -21 35 -3 28 -9 34 -40 42 -27 8 -38 7 -44 -2 -10 -16 -37
-107 -47 -162 -5 -24 -17 -57 -27 -72 -10 -15 -19 -30 -19 -33 0 -3 -6 -15
-13 -27 -15 -28 -6 -117 14 -134 21 -18 18 -42 -5 -36 -54 14 -67 -140 -26
-327 28 -131 30 -170 10 -206 -8 -14 -14 -40 -15 -58 0 -18 -5 -53 -11 -78
-14 -55 0 -161 38 -287 l27 -87 928 0 928 0 -6 26 c-6 23 -4 25 22 22 21 -2
30 -9 32 -26 3 -18 10 -22 40 -22 31 0 40 5 54 30 21 37 36 38 40 3 l3 -28
388 -3 387 -2 0 394 0 394 -37 6 c-21 4 -83 9 -138 11 -55 2 -119 8 -141 13
-23 5 -65 7 -93 4 -28 -2 -78 1 -111 7 -32 7 -114 12 -180 12 -209 1 -271 38
-251 152 2 14 31 7 51 -13 12 -12 15 -20 8 -20 -7 0 -1 -8 12 -17 17 -12 46
-18 85 -19 33 -1 95 -7 139 -13 76 -11 80 -11 102 10 27 26 30 39 9 39 -8 0
-19 16 -24 38 -14 47 -14 55 1 86 8 19 14 23 24 16 9 -8 19 -2 37 21 20 26 23
37 15 54 -6 13 -17 22 -27 21 -22 -1 -27 51 -7 73 15 16 15 20 -5 45 -17 21
-24 25 -30 14 -5 -7 -6 -26 -3 -41 4 -21 -1 -37 -20 -62 -14 -18 -26 -40 -26
-48 0 -17 -62 -57 -88 -57 -10 0 -26 14 -35 30 -19 32 -36 37 -68 20 -14 -8
-19 -21 -19 -56 0 -41 -2 -45 -22 -42 -20 3 -23 9 -23 43 l0 40 -48 0 c-44 0
-51 3 -75 36 -15 19 -43 49 -62 66 -31 28 -34 34 -25 59 6 16 21 34 34 40 l23
12 -25 16 c-14 10 -42 20 -62 23 l-37 6 7 -52 c8 -59 -3 -81 -42 -81 -16 0
-36 -13 -56 -35 -22 -25 -36 -33 -49 -29 -11 3 -26 0 -34 -7 -8 -6 -33 -12
-57 -12 -23 1 -49 -3 -58 -8 -16 -8 -55 11 -71 35 -15 22 -7 65 18 95 19 23
23 35 16 48 -13 25 -5 42 17 36 12 -3 17 -11 14 -22 -4 -15 3 -19 37 -24 23
-3 50 -13 60 -22 27 -24 47 -13 61 35 13 44 8 60 -15 41 -8 -7 -27 -11 -43 -9
-23 2 -28 8 -27 28 1 14 5 34 8 45 4 11 1 28 -7 38 -12 18 -14 18 -50 -3 -28
-17 -44 -20 -69 -14 -18 4 -39 7 -45 5 -7 -1 -13 3 -13 8 0 6 -22 25 -50 43
-27 18 -50 36 -50 40 0 4 -20 5 -43 2 -35 -5 -45 -3 -50 10 -9 22 -26 20 -48
-6 -25 -28 -24 -53 2 -72 16 -11 21 -24 20 -48 -1 -18 -2 -62 -2 -98 0 -57 -2
-61 -10 -33 -6 22 -14 30 -24 27 -9 -4 -15 0 -15 9 0 17 -67 60 -81 52 -5 -4
-9 -25 -9 -48 0 -82 -52 -125 -95 -77 -21 23 -38 25 -101 9 l-44 -11 0 -53 c0
-39 -5 -56 -19 -69 -22 -20 -58 -17 -52 5 2 8 5 26 6 40 1 14 5 30 8 36 4 7 3
14 -3 18 -5 3 -10 17 -10 30 0 29 -15 40 -53 37 -36 -3 -54 11 -62 49 -4 16
-13 29 -20 29 -26 0 -35 33 -15 58 31 38 84 25 55 -14 -25 -32 -17 -41 40 -49
40 -5 58 -12 65 -26 6 -10 17 -19 25 -19 8 0 15 -7 15 -15 0 -8 4 -15 9 -15 5
0 9 20 9 45 1 41 -1 45 -23 45 -18 0 -26 8 -34 33 -7 19 -9 41 -6 49 8 21 -20
42 -41 30 -24 -14 -51 -4 -58 21 -9 32 -7 70 4 87 8 13 13 13 43 -3 47 -25 72
-19 72 16 0 49 84 77 120 41 22 -23 15 -37 -26 -47 -45 -11 -53 -20 -45 -50 8
-33 55 -46 73 -20 25 37 34 43 63 43 19 0 34 -7 42 -20 23 -36 45 -25 52 26
10 72 8 79 -21 90 -26 9 -28 14 -29 69 -2 83 -9 121 -24 140 -16 19 -20 19
-50 -5z m60 -211 c0 -10 -34 -12 -43 -2 -4 3 -2 12 4 20 9 10 15 10 25 2 8 -6
14 -15 14 -20z m410 -311 c19 -18 38 -32 42 -30 7 2 -22 -84 -35 -105 -5 -7
-21 -13 -37 -13 -24 0 -32 7 -46 36 -9 20 -25 41 -36 47 -22 14 -23 40 -2 72
24 37 70 34 114 -7z m-917 -132 c-2 -33 -23 -65 -43 -66 -15 0 -28 19 -35 48
-5 25 -3 32 8 32 8 0 18 7 21 16 3 9 15 14 28 12 20 -3 23 -8 21 -42z m147 14
c8 -15 6 -21 -9 -30 -29 -15 -41 -12 -41 8 0 18 18 42 32 42 4 0 12 -9 18 -20z
m331 -89 c5 -13 5 -20 0 -16 -5 3 -12 1 -16 -5 -9 -14 -42 -13 -47 2 -5 14 32
49 46 45 5 -2 13 -13 17 -26z m-248 -28 c19 -30 21 -41 13 -60 -14 -30 -41
-29 -82 2 -18 14 -37 25 -43 25 -18 0 -13 42 7 56 9 7 32 14 49 14 27 0 37 -7
56 -37z m1171 -27 c-3 -8 2 -20 10 -29 24 -24 36 -92 20 -109 -12 -12 -9 -20
21 -52 40 -45 43 -56 15 -81 -28 -25 -107 -24 -157 2 -33 17 -53 19 -160 15
-130 -5 -260 15 -283 44 -10 11 -10 14 -1 14 7 0 20 7 28 16 13 12 26 14 57 9
23 -4 66 -9 96 -10 30 -2 89 -9 130 -14 152 -21 178 -23 200 -11 18 9 19 14 9
27 -7 8 -29 21 -49 29 -46 19 -74 63 -61 97 11 30 27 41 36 27 3 -5 15 -10 27
-10 15 0 18 4 14 16 -9 24 23 57 40 43 7 -6 11 -16 8 -23z m-461 -14 c68 -43
71 -55 28 -101 -34 -36 -44 -38 -71 -11 -11 11 -20 17 -20 13 0 -5 -5 0 -11
10 -15 26 -43 22 -34 -5 4 -13 9 -38 12 -56 5 -30 2 -33 -33 -48 -84 -35 -186
18 -105 54 17 7 32 23 35 37 4 16 19 30 42 40 32 13 35 18 29 44 -5 23 -2 32
17 45 28 20 55 15 111 -22z m238 18 c27 0 24 -32 -6 -68 -46 -54 -113 -51
-147 8 l-17 30 32 14 c53 24 61 25 91 21 16 -3 37 -5 47 -5z m-1155 -123 c3
-3 3 -10 -1 -16 -10 -17 -66 -12 -110 8 l-40 19 73 -3 c40 -1 75 -5 78 -8z
m274 -40 c0 -17 -6 -18 -57 -14 -69 5 -120 14 -133 22 -19 12 2 26 28 21 15
-3 45 0 67 8 35 13 43 12 68 -2 15 -9 27 -25 27 -35z m194 12 c13 -6 27 -21
30 -33 4 -16 8 -18 17 -9 12 12 39 7 39 -8 0 -14 -42 -11 -72 5 -16 9 -28 10
-30 4 -5 -13 -58 12 -58 28 0 23 37 30 74 13z m-766 -171 c-2 -13 -11 -24 -20
-26 -14 -3 -15 0 -5 22 15 32 30 34 25 4z m385 -260 c6 -19 -3 -38 -19 -38 -8
0 -14 10 -14 25 0 26 25 35 33 13z m1115 -20 c18 -18 15 -28 -10 -37 -25 -9
-38 2 -38 32 0 20 30 23 48 5z m1207 -98 c30 -12 30 -15 -1 -128 -12 -45 -24
-68 -41 -80 -24 -15 -26 -15 -44 9 -24 31 -24 33 10 72 29 33 29 33 10 57 -26
35 -25 68 4 73 12 2 25 5 29 6 4 0 19 -4 33 -9z m-558 -32 c-3 -7 -5 -2 -5 12
0 14 2 19 5 13 2 -7 2 -19 0 -25z m-1227 -43 c0 -8 -4 -15 -10 -15 -5 0 -7 7
-4 15 4 8 8 15 10 15 2 0 4 -7 4 -15z m-182 -119 c-2 -25 -8 -32 -28 -34 -35
-4 -58 43 -34 69 13 15 20 16 40 7 20 -9 24 -18 22 -42z m1602 28 c0 -8 -4
-14 -10 -14 -5 0 -10 9 -10 21 0 11 5 17 10 14 6 -3 10 -13 10 -21z m-1060
-59 c0 -17 -17 -28 -30 -20 -7 4 -7 13 0 26 12 21 30 17 30 -6z m420 -90 c0
-8 -4 -15 -10 -15 -5 0 -10 7 -10 15 0 8 5 15 10 15 6 0 10 -7 10 -15z m570
-25 c0 -5 -4 -10 -10 -10 -5 0 -10 -7 -10 -15 0 -19 -36 -20 -44 0 -6 16 19
34 47 35 9 0 17 -4 17 -10z"/>
<path d="M7737 1913 c-11 -11 -8 -68 5 -81 20 -20 46 3 40 35 -7 42 -28 64
-45 46z"/>
<path d="M3084 1868 c-15 -24 -30 -45 -34 -48 -4 -3 -27 -32 -51 -66 -60 -82
-129 -220 -136 -271 -5 -36 -1 -47 26 -80 17 -21 31 -48 31 -61 0 -17 5 -22
18 -20 10 2 17 12 16 25 0 12 3 20 8 17 4 -3 16 2 25 12 16 16 16 16 -5 10
-23 -8 -32 9 -9 17 6 2 8 8 4 13 -5 5 -13 1 -18 -9 -15 -26 -32 -21 -27 8 3
14 -1 30 -8 36 -18 15 -18 53 1 89 15 30 60 56 104 62 30 4 37 21 17 41 -13
13 -14 25 -6 68 6 30 17 57 26 62 11 6 12 12 4 22 -7 8 -7 16 -2 19 6 3 13 -1
16 -10 10 -26 28 -4 22 27 -3 16 -1 40 4 54 14 37 4 30 -26 -17z m-84 -238 c0
-5 -2 -10 -4 -10 -3 0 -8 5 -11 10 -3 6 -1 10 4 10 6 0 11 -4 11 -10z"/>
<path d="M7905 1900 c3 -5 8 -10 11 -10 2 0 4 5 4 10 0 6 -5 10 -11 10 -5 0
-7 -4 -4 -10z"/>
<path d="M8164 1885 c-4 -8 -1 -21 5 -29 15 -18 1 -54 -34 -92 l-27 -29 53 -5
c53 -5 54 -6 51 -34 -2 -16 -13 -42 -25 -57 -17 -23 -18 -31 -7 -44 7 -8 19
-15 27 -15 9 0 13 -6 9 -15 -3 -9 0 -15 9 -15 8 0 15 6 15 14 0 7 17 26 38 42
20 15 39 29 41 31 3 2 -1 9 -7 15 -7 7 -12 22 -12 33 0 12 -9 30 -20 40 -11
10 -22 27 -26 38 -5 16 -8 17 -16 6 -8 -11 -8 -10 -4 4 3 10 6 24 6 30 0 7 14
18 31 26 25 11 36 11 51 2 15 -9 23 -9 34 0 18 15 12 23 -36 48 -50 26 -147
30 -156 6z"/>
<path d="M3812 1864 c-24 -16 -30 -37 -9 -28 11 4 42 44 34 44 -1 0 -13 -7
-25 -16z"/>
<path d="M8450 1830 c-10 -19 -7 -26 23 -57 33 -33 35 -33 35 -11 0 13 4 35 7
51 6 21 4 27 -8 27 -8 0 -22 3 -30 6 -10 3 -20 -3 -27 -16z"/>
<path d="M3720 1830 c0 -5 5 -10 10 -10 6 0 10 5 10 10 0 6 -4 10 -10 10 -5 0
-10 -4 -10 -10z"/>
<path d="M8724 1814 c-49 -20 -55 -94 -9 -94 11 0 65 78 65 93 0 12 -28 13
-56 1z"/>
<path d="M8800 1810 c0 -5 7 -10 16 -10 8 0 12 5 9 10 -3 6 -10 10 -16 10 -5
0 -9 -4 -9 -10z"/>
<path d="M9020 1811 c-14 -5 -37 -6 -51 -4 -22 4 -28 0 -34 -18 -10 -32 -63
-79 -89 -79 -29 -1 -70 -36 -62 -55 3 -9 18 -15 40 -15 23 0 45 -9 66 -27 27
-23 43 -27 101 -29 73 -3 113 -21 122 -54 6 -22 23 -25 47 -10 12 7 12 14 2
43 -10 27 -10 41 -1 60 10 22 8 30 -9 51 -24 32 -19 63 16 92 l26 21 -23 12
c-29 16 -118 23 -151 12z m79 -105 c14 -12 17 -22 10 -30 -5 -6 -15 -19 -22
-29 -21 -30 -61 -13 -82 34 -24 52 -10 72 40 55 19 -7 43 -20 54 -30z"/>
<path d="M3661 1763 c-14 -31 3 -30 40 2 l30 24 -30 -2 c-20 -1 -33 -9 -40
-24z"/>
<path d="M9315 1777 c3 -7 27 -23 53 -36 88 -46 82 -45 82 -11 0 25 -4 30 -24
30 -13 0 -26 7 -30 15 -3 10 -19 15 -45 15 -28 0 -39 -4 -36 -13z"/>
<path d="M9558 1728 c-18 -24 -36 -45 -40 -46 -5 -2 -6 -8 -2 -13 3 -5 18 0
34 11 15 11 33 20 39 20 6 0 11 16 11 35 0 19 -2 35 -4 35 -2 0 -19 -19 -38
-42z"/>
<path d="M7785 1750 c-5 -7 -1 -16 8 -21 8 -5 28 -29 44 -54 19 -31 33 -43 44
-40 9 3 24 -1 32 -10 21 -21 50 -19 72 5 17 19 17 21 -11 62 -15 24 -29 45
-31 47 -1 2 -26 5 -55 6 -29 2 -63 6 -74 10 -13 4 -25 2 -29 -5z"/>
<path d="M8349 1666 c-1 -3 -1 -15 -1 -26 0 -34 1 -36 27 -48 42 -19 108 22
87 55 -7 11 -111 29 -113 19z"/>
<path d="M8554 1634 c-19 -8 -4 -44 25 -59 14 -7 36 -23 48 -34 l22 -21 12 41
c17 55 5 73 -52 76 -24 1 -49 0 -55 -3z"/>
<path d="M9312 1575 c-17 -36 -15 -45 8 -45 19 0 40 33 40 61 0 20 -37 7 -48
-16z"/>
<path d="M9490 1573 c-14 -9 -26 -17 -28 -18 -1 -2 3 -14 9 -29 15 -32 40 -33
74 -3 24 21 25 23 10 45 -19 26 -32 28 -65 5z"/>
<path d="M8975 1536 c-11 -9 -15 -16 -8 -16 7 0 3 -15 -10 -39 -25 -45 -18
-60 44 -92 l37 -19 10 47 c9 42 8 50 -11 74 -12 14 -26 34 -32 43 -9 15 -12
16 -30 2z"/>
<path d="M3030 1535 c0 -5 5 -17 10 -25 5 -8 10 -10 10 -5 0 6 -5 17 -10 25
-5 8 -10 11 -10 5z"/>
<path d="M7040 1520 c0 -5 5 -10 10 -10 6 0 10 5 10 10 0 6 -4 10 -10 10 -5 0
-10 -4 -10 -10z"/>
<path d="M8721 1512 c-42 -14 -43 -15 -38 -52 4 -32 0 -42 -28 -72 -30 -32
-32 -35 -15 -46 10 -6 27 -8 39 -5 15 4 30 -5 55 -31 l34 -37 37 16 c52 21 62
19 97 -15 24 -24 33 -28 44 -19 8 6 14 22 14 35 0 20 -8 24 -77 39 -114 25
-157 82 -97 130 27 22 26 43 -4 61 -12 8 -29 7 -61 -4z"/>
<path d="M8435 1503 c-26 -6 -38 -19 -40 -40 -1 -15 7 -18 41 -18 35 0 45 4
56 23 10 19 10 25 -2 32 -16 10 -23 11 -55 3z"/>
<path d="M3011 1482 c-14 -26 -14 -42 -1 -42 11 0 25 48 17 56 -3 3 -10 -3
-16 -14z"/>
<path d="M7522 1483 c5 -25 28 -28 28 -4 0 12 -6 21 -16 21 -9 0 -14 -7 -12
-17z"/>
<path d="M2977 1473 c-4 -3 -7 -13 -7 -22 1 -13 3 -13 11 2 11 19 8 33 -4 20z"/>
<path d="M9175 1384 c-28 -28 -14 -146 18 -152 45 -9 66 50 41 113 -18 49 -36
61 -59 39z"/>
<path d="M9432 1352 c-10 -22 -9 -29 3 -41 13 -13 17 -12 35 4 26 24 25 39 -3
52 -20 9 -24 7 -35 -15z"/>
<path d="M3040 1329 c0 -11 4 -18 10 -14 5 3 7 12 3 20 -7 21 -13 19 -13 -6z"/>
<path d="M9550 1332 c0 -18 29 -52 43 -52 4 0 7 16 7 35 0 31 -3 35 -25 35
-18 0 -25 -5 -25 -18z"/>
<path d="M8655 1280 c-3 -5 -1 -10 4 -10 6 0 11 5 11 10 0 6 -2 10 -4 10 -3 0
-8 -4 -11 -10z"/>
<path d="M9334 1251 c3 -23 2 -42 -4 -46 -6 -4 -7 -13 -2 -22 12 -20 -2 -91
-21 -110 -14 -14 -18 -13 -38 6 -13 11 -26 21 -31 21 -16 0 -7 -23 17 -46 27
-25 33 -70 15 -104 -15 -29 12 -48 77 -55 32 -3 87 -15 123 -25 36 -11 80 -20
98 -20 30 0 32 2 32 35 0 20 -9 53 -20 75 -11 22 -20 50 -20 64 0 15 8 30 20
36 17 9 20 21 20 75 0 59 -2 65 -21 65 -25 0 -106 46 -118 67 -6 12 -12 13
-30 4 -23 -13 -45 -6 -36 10 4 5 -10 9 -31 9 l-37 0 7 -39z m61 -201 c-8 -13
-35 0 -35 16 0 12 4 12 20 4 11 -6 18 -15 15 -20z"/>
<path d="M2930 1252 c0 -15 7 -38 16 -50 13 -19 22 -22 47 -17 18 4 49 18 69
31 21 13 40 24 44 24 3 0 16 8 29 18 22 18 22 18 -42 18 l-64 0 6 -27 c10 -43
-20 -46 -62 -4 -19 19 -37 35 -39 35 -2 0 -4 -12 -4 -28z"/>
<path d="M4771 1235 c-24 -25 -36 -42 -27 -39 24 9 20 -19 -7 -44 -19 -18 -30
-21 -57 -16 -23 5 -36 3 -44 -7 -6 -8 -22 -15 -35 -17 -14 -1 -27 -4 -29 -7
-5 -4 12 -58 43 -140 19 -51 24 -88 30 -235 4 -96 10 -193 14 -215 l8 -40 7
30 c52 210 108 417 152 564 16 51 16 55 0 67 -11 8 -13 14 -7 19 13 7 15 125
3 125 -4 0 -27 -20 -51 -45z"/>
<path d="M100 267 c-23 -11 -25 -19 -28 -87 -2 -58 -7 -80 -23 -96 -10 -11
-16 -24 -12 -27 10 -10 43 -8 43 2 0 5 12 23 26 40 19 23 24 38 20 58 -8 38 2
49 52 56 55 7 58 11 38 42 -13 19 -25 25 -54 25 -20 0 -48 -6 -62 -13z"/>
<path d="M287 242 c-40 -18 -40 -19 -16 -80 16 -38 7 -58 -37 -82 -21 -12 -30
-25 -32 -48 -3 -28 0 -32 20 -32 13 0 42 9 63 20 l40 21 17 -21 c10 -13 28
-20 49 -20 26 0 30 3 21 12 -7 7 -12 26 -12 42 0 22 -3 27 -11 19 -16 -16 -51
22 -47 50 3 20 8 22 49 19 43 -3 47 -1 59 28 18 44 1 80 -39 80 -15 0 -41 2
-57 5 -16 3 -46 -3 -67 -13z"/>
<path d="M725 233 c22 -15 32 -16 39 -4 3 5 -8 11 -26 13 -28 5 -29 4 -13 -9z"/>
<path d="M795 230 c-3 -5 -1 -28 5 -51 8 -31 8 -44 -1 -55 -10 -13 -14 -12
-30 2 -19 17 -49 13 -49 -6 0 -6 5 -21 11 -32 10 -18 8 -25 -11 -40 -49 -40
-93 1 -51 46 16 17 20 30 15 54 -4 17 -11 35 -18 40 -15 12 -105 36 -111 30
-3 -3 -7 -53 -10 -111 l-5 -107 124 0 c116 0 125 1 131 20 8 24 22 25 47 3 15
-13 23 -15 36 -6 24 14 21 37 -5 41 -29 4 -45 26 -41 54 2 18 8 22 28 20 14
-2 29 -8 35 -13 28 -27 63 7 56 56 -5 31 -18 42 -64 50 -74 13 -87 14 -92 5z"/>
<path d="M1034 208 c-4 -7 2 -18 14 -26 24 -15 29 -51 11 -69 -17 -17 -1 -51
30 -68 36 -18 41 -13 31 32 -5 19 -6 41 -3 49 6 17 40 28 80 25 38 -2 49 12
27 33 -17 18 -45 21 -60 6 -6 -6 -25 -2 -53 10 -50 23 -67 25 -77 8z"/>
<path d="M915 60 c-3 -5 -1 -10 4 -10 6 0 11 5 11 10 0 6 -2 10 -4 10 -3 0 -8
-4 -11 -10z"/>
<path d="M90 20 c0 -15 7 -20 25 -20 29 0 30 3 9 24 -21 22 -34 20 -34 -4z"/>
<path d="M970 15 c0 -8 5 -15 10 -15 6 0 10 7 10 15 0 8 -4 15 -10 15 -5 0
-10 -7 -10 -15z"/>
</g>
</svg>
